/* XPM */
static char *d73f61633f6b4ed2bd94dc2ba102d0e1MO0rb3jeVZgKRTMr[] = {
/* columns rows colors chars-per-pixel */
"64 64 4 1 ",
"  c #031402",
". c #051E03",
"X c #092A06",
"o c #0F3A0B",
/* pixels */
"oooooooooooooooooooooooooooooooooooooooooooooooooooooooooooooooo",
"oooooooooooooooooooooooooooooooooooooooooooooooooooooooooooooooo",
"ooooooooooooooooooooooXXoooXXXoooooooooooooooooooooooooooooooooo",
"oXXXXXXooooooXXXXXoooXX...XXooooXXXoXXXX.XXoooXXooooXXoooooooooo",
"ooooooooX.XXXXXXXXXXXoooooooXXooooXXXooooooXoXXooooooXXooooooooo",
"oooooooXXooooooXXXXXXXooooooooXXoXXXXXXXoooXooooooooooooXoXooooo",
"ooooo..XoooXXXXoooooooooXXooooooooooooooXooXXoooXXXXXoooXXXXoooo",
"oooXX.oooXXoooooooooooXXoXXXXooooXXXoooooXXXooXXXoooXooooooooooo",
"ooooXXooooX..XXXXXXooooXXXXX.... .XXooXXoooXXXXXXXXXXoooXXooXooo",
"ooooXXXoooooXXoooooooooooooooooooooXoXXXXXXooooooooooooooooooooo",
"oooXXoooooooX.XooooooooXXXooooXXooooXXXooooooXoooooooooooooooooo",
"oooXooooooooooXXX....XXooooXXXXXoooXXooooooooXXXXooooooXXooXoooo",
"oooXXXXXooooooooooXoooXoooXXooooo.ooooXXXXXXooooXXXX.XXXXooXoooo",
"oooXXoooooX....ooXXooooXXXoooooXX.XXXoXXoXXooXoooooooXXXoooooooo",
"ooXXoooXXoooooooooooooooooooooooooooooooooooooXXXXooooooooXooooo",
"ooXoooooX...XooooXXXXoooXXXXXoXXXoXXXXXXoXooooXXXooXooooooXXoooo",
"ooXooXoXXooXooooooooooooooXXooooooooooooXXooooooXooooooXXXoXXooo",
"ooXoXXXXoooXXooXXoXXXXooXoXoooooooXooooXooXXXXXXooooooXoooooXooo",
"ooooooXoooooXXXXooooooooXoooooooXXXooooXoooooXoXooXoXXoooooXoooo",
"ooo.XXXoooXXoooooooXXoooXoXXXooooooooooXooooXXoXoXXooooooooXoooo",
"oooXooooooooooooooooooooooooXXXooXXooooXXXooXooXoooXXXoooooXoooo",
"ooo.XXXXXoo...XoooXoooooXXXoXX..XXXXXooooooooooooXoooooooXoXoooo",
"ooooooooooXXoXXoXXXoX.XooooooXXoooooXXooooooXXXXXXXooooooooXoooo",
"oXoooooooooXooXooooXXXXXXXXoXXoooooooooXXooooooooX.XXXXXXXoXoooo",
"oXoXoooXXXXXooooooXXooXoooooooooXXXooXooooooooooo.XXoooooooooooo",
"ooooo.XXooooooXXoooooXXoooooooo..ooooXooX.XXoXXXXooXooooooXXXooo",
"oooooXXooooXXXXXXoooXoooXXoooXX..XXooXoooXXoooooXXoooooooXooXooo",
"ooooooXXXoooooXX.XXooXoXXoooooooXooooXooooXXooX.XooooooXXXooXooo",
"ooooXXXXXXXoXXXoXXXoXXoXooXoooooooX.XXoooooXoXXXXoXXoooXooooXooo",
"oooooooooooooXoooooooXXXXXXooXXooXXooXXXoXXXooooXXXoooXXoooXXooo",
"oo.XXXXooooXXXoooooooooooooXooXoooXoooooooooooooooooooooooX.oooo",
"ooXooo..ooXXXXoooXXoXoooooXXooXXooXoooXXoXXXXoooooooXooXoXXXoooo",
"ooXoooXooooooXooXXoooooXXXXXoooXXoXXooooXXooXXXXoo..XooXoooooooo",
"ooXoXooooXoooXoXoooXoooooXXXooooXooXoXXXXXooooooooXooooooooooooo",
"ooXX.XooXXooo.XXooooXXXXXXoooo.XX.XoXXoooXXXooooXoXooooooooooooo",
"oooooXXXXoXXo.oooooooooooXXXoXXoooooooXXXXX..X.XXooXXo..XXoXoooo",
"ooXooXoooooXXX.XoXXXoXooooXXoXooooXXX.XooXooooXooooXXXXooooooooo",
"ooooX.oXXXoXoXoooooooooooX.XXooXXXoooooXXXoooX.ooXXXoooXoooooooo",
"oooooooXoooXXXooooooXX..XXXooXX.XXXooX.XoooooX..XooooooXXoooXooo",
"oooooXooooXXooXXXXXXXooXooooooooooXXXXooooXXoooX.XooXXXoXXooXooo",
"ooXoXXXXXoooooXoooXXXXoXoooooooooooooXooX..XoXooXXoooooo.Xoooooo",
"oooXXoooooooooXXXoooooooXXXXX..XX..ooXoXXooooXXXXoXoooooXooooooo",
"ooooooXXXX.XooXoXXooooooXXXXooXXoooooXoooooooooXXo.XXoooXooooooo",
"ooXXooooooooooXooooXoXooooooooooooXXoXooXoXXXXXXooooooooXoXooooo",
"oooooXoooooXXXXooooXXooXXooooXXooooXXXooXXooooooooooooXXXoXXXooo",
"oooXXXXX.XXXoooooooooooXoooooXXXXXXXoooXXooooooXooXXoooXXXXooooo",
"ooXXoooXXooooXXXooXooXXo..XXooXXXooooooooXooX..oooo.XXoo.X.ooooo",
"ooooooXXooooooooXXXoXXoooXooooXoXoooooooXXXooooooooX..ooXooooooo",
"oooooXXooXoooXXXXoXXooooXXooooXoXXXXoooooooooooooXooXXXXXooooooo",
"ooXooooooooXoooooooooooXooooooXoXXXoooXXooXXXooXXXoo.XXoooXXoooo",
"ooXoXXXoooX.XXooooXXXXoXXXoXX.XXXooooooooX.XooXoooooXXXXXXoooooo",
"ooXXXXXXooXooXXXooXXooooooooooooooooX.XXooooooXXoooooooooXXooooo",
"ooXooooooooooooooooXXoooooooooooooXX.XXooooooooXXooooooXXXXooooo",
"ooooooooooooooooooooXXXooooooooooooX.ooooooooX.XoooooXXXoooooooo",
"ooXooooooooXXXX.oooooooXXooooooXXooX.ooXXoXooooooooXXooXXooooooo",
"ooXXooooXXoooooXXXooooooXX.XXXXoooXXooooXooXooooooXXXoooXX.ooooo",
"oooooooooooooooooooXXXXXXooXXoooXXXXoooooooXXXXoooXoooooooXooooo",
"oooooXX.XoooXoXXXXXXXoooooooooooXoooooooooooooooooXXXoooooXooooo",
"ooooooooXXoXXoooooooooooooXXooXXoooooooooXXXXXooXXXoooXXXXoooooo",
"ooXXXXXooooooooooXooooXXXXXXoXXoXX.XooooXXooooooooooXXoooooooooo",
"oooooooooXXXXXXXXXoooooooooooXooooXoooooXXXXoooooooooXXooooooooo",
"ooooooooXXooooooooooXXXXXXXooXooooXoooXXXXXXXX.XooooooXooooooooo",
"oooXXXXXooooooooooooXooooooooooooooooooooooooXXoooooooXXXooooooo",
"ooooooooooooooooooooooooooooooooooooooooooooooooooooooooXXXooooo"
};
