/* XPM */
static char *_985caa477994d769d5c1ff29c6e2931[] = {
/* columns rows colors chars-per-pixel */
"32 32 4 1 ",
"  c #0A5826",
". c #065956",
"X c #078835",
"o c #0A9591",
/* pixels */
"    XX                          ",
"    XX                  XX      ",
"     XXX                XXX     ",
"     XXXX     .XX  .      XX    ",
"  XX    XX    ..X ..       X    ",
"         X..   .X..             ",
"          X..  ...X             ",
"           X.. .. XX   X        ",
"    XXX      ...       XXX      ",
"      XX   ......       XXX     ",
"       XX  ......         XX    ",
"        XX........XX       XX   ",
"  XX      .........XX           ",
"   XX    .....o.....XXX         ",
"   XXX   ....oo.....  XXX       ",
"   XXXX  .........o..           ",
"     XXX....o.....o...          ",
"      XX....o...o......         ",
"       ....o......o.... XX      ",
"       .................XXXX    ",
"  XX   .......ooo.....o.   XX   ",
"  XXXX...o....ooo.....o.. XXX   ",
"    XX..o....ooooo.......       ",
"     ...o....ooooo....o...      ",
"    ..........ooo.........      ",
"  XX.......................     ",
"  XXX.....................XX    ",
"    XX         X                ",
"     XX        XXX    X         ",
"                XX    XXXX      ",
"                       XX       ",
"                                "
};
