/* XPM */
static char *e520c3a221a14cde8e534d69b7ea4708[] = {
/* columns rows colors chars-per-pixel */
"32 32 6 1 ",
"  c #0A5826",
". c #078835",
"X c #201683",
"o c #4135BF",
"O c #0A9591",
"+ c white",
/* pixels */
"    ..                          ",
"    ..                  ..      ",
"     ...      O     OO  ...     ",
"     ....   OOOOO  OO     ..    ",
"  ..    ..    OOOOOOOO     .    ",
"        XXXXXXXXXOOOO           ",
"      XXXooooooooXXXXX          ",
"     XXooooooooooooooXXX        ",
"    .XoooXXXXooooooooooXXX      ",
"     XooXX++XXXooooooXXooXX     ",
"     XooX+XXX+XXoooXX+XXooX.    ",
"     XooX+XX+++XoXXXX++XooXX.   ",
"  .. XoX+++XX++XoX++X++XoooX    ",
"   ..XoXX++++++XoX+++++XooXX    ",
"   ..XooXXXX++XXoXX+++XXXoX     ",
"   ..XoooooXXXXooooXXXXoooX     ",
"     XooooooooooooooooooooX     ",
"     XooooooooooXXXoooooooXX    ",
"     XXooooooooXXooooooooooX    ",
"      XooooooooooooooooooooX    ",
"  ..  XooooXXXooooXXXoooooXX.   ",
"  ....XooooXXXXXXXXXXoooooX..   ",
"    ..XooooXXXXXXXXXoooooXX     ",
"     .XXoooXXXXXooooooooXX      ",
"      .XXXoooooooooooooXX.      ",
"  ..    .XXXXXooXXXXXXXX ..     ",
"  ...     .. XXXX  ...    ..    ",
"    ..         .                ",
"     ..        ...    .         ",
"                ..    ....      ",
"                       ..       ",
"                                "
};
