/* XPM */
static char *_b69ed6c584b420cb0d4006098c160b3[] = {
/* columns rows colors chars-per-pixel */
"32 32 2 1 ",
"  c #0A5826",
". c #078835",
/* pixels */
"    ..                          ",
"    ..                  ..      ",
"     ...                ...     ",
"     ....      ..         ..    ",
"  ..    ..      .          .    ",
"         ..     ..              ",
"          ..    ...             ",
"           ..     ..   .        ",
"    ...                ...      ",
"      ..    ..          ...     ",
"       ..    ...          ..    ",
"        ...   ......       ..   ",
"  ..      ..      ...           ",
"   ..      ..       ...         ",
"   ...      ..        ...       ",
"   ....          ..             ",
"     ...    .   ....            ",
"      ...   ..   ....           ",
"       ...   ...   .... ..      ",
"        ...    ..     ......    ",
"  ..     ...    .          ..   ",
"  ....    ...       ..    ...   ",
"    ...    ....      ...        ",
"     ....   .....      ..       ",
"      ....    ......   ...      ",
"  ..    ....    .....    ..     ",
"  ...     ..       ...    ..    ",
"    ..         .                ",
"     ..        ...    .         ",
"                ..    ....      ",
"                       ..       ",
"                                "
};
