/* XPM */
static char *_486c996817f4cd39b76a9ae1825f5bc[] = {
/* columns rows colors chars-per-pixel */
"32 32 4 1 ",
"  c #0A5826",
". c #078835",
"X c #109575",
"o c #1EAF8D",
/* pixels */
"    ..                          ",
"    ..                  ..      ",
"     ...                ...     ",
"     ....      ..         ..    ",
"  ..    ..      .          .    ",
"         ..  XX ..X             ",
"         XX.XXX ..XX            ",
"         X XXoX XXoX X .        ",
"    ...      o    o  XX...      ",
"      ..   X.ooXooo     ...     ",
"       ..  X oXXoXo     X ..    ",
"        .X.  oXooXo.    X  ..   ",
"  ..     X.. oooooo..           ",
"   ..      .oooooooo...         ",
"   ...     oooXXXoooo ...       ",
"   ....   oXXooooXoXoo          ",
"     ...  oooooXXXoXoo          ",
"      ...oooooooXooooo          ",
"       ..ooXoXoooXooXo. ..      ",
"        .ooooXoXooXXXo......    ",
"  ..     oXooooXoXXXoo     ..   ",
"  ....    ooooXoooXooo    ...   ",
"    ...   oooooXXoooo...        ",
"     ....   oooXoooo   ..       ",
"      ....   oooooo.   ...      ",
"  ..    ....    .....    ..     ",
"  ...     ..       ...    ..    ",
"    ..         .                ",
"     ..        ...    .         ",
"                ..    ....      ",
"                       ..       ",
"                                "
};
