/* XPM */
static char *_372edf326df4d48af1b3e77632a41ec[] = {
/* columns rows colors chars-per-pixel */
"32 32 5 1 ",
"  c #0A5826",
". c #078835",
"X c #201683",
"o c #4135BF",
"O c white",
/* pixels */
"    ..                          ",
"    ..                  ..      ",
"     ...                ...     ",
"     ....      ..         ..    ",
"  ..    ..      .          .    ",
"        XXXXXXXXX.              ",
"      XXXooooooooXXXXX          ",
"     XXooooooooooooooXXX        ",
"    .XoooXXXXooooooooooXXX      ",
"     XooXXOOXXXooooooXXooXX     ",
"     XooXOXXXOXXoooXXOXXooX.    ",
"     XooXOXXOOOXoXXXXOOXooXX.   ",
"  .. XoXOOOXXOOXoXOOXOOXoooX    ",
"   ..XoXXOOOOOOXoXOOOOOXooXX    ",
"   ..XooXXXXOOXXoXXOOOXXXoX     ",
"   ..XoooooXXXXooooXXXXoooX     ",
"     XooooooooooooooooooooX     ",
"     XooooooooooXXXoooooooXX    ",
"     XXooooooooXXooooooooooX    ",
"      XooooooooooooooooooooX    ",
"  ..  XooooXXXooooXXXoooooXX.   ",
"  ....XooooXXXXXXXXXXoooooX..   ",
"    ..XooooXXXXXXXXXoooooXX     ",
"     .XXoooXXXXXooooooooXX      ",
"      .XXXoooooooooooooXX.      ",
"  ..    .XXXXXooXXXXXXXX ..     ",
"  ...     .. XXXX  ...    ..    ",
"    ..         .                ",
"     ..        ...    .         ",
"                ..    ....      ",
"                       ..       ",
"                                "
};
