/* XPM */
static char *_ca450c519f346268de9c9d366fc0a55[] = {
/* columns rows colors chars-per-pixel */
"32 32 2 1 ",
"  c #634601",
". c #7E5B07",
/* pixels */
"                                ",
"  .               ..            ",
"  ...            ...            ",
"    ..     ..      ...          ",
"     ...    ...     .....       ",
".      ..     ..    ... ..      ",
".       ..     ..     .....     ",
"..       ..     ..      ...     ",
" ..      ...     ...      ..    ",
"  ..      ..      ...      ..   ",
"   ..      ..      ...      ..  ",
"   ....     ...      ..      .  ",
"    ....     .....   ....       ",
"     ...      .. .     ..       ",
"       ...     .. ..    ...     ",
"   ..    ..     .. ..    ...    ",
"  . .     ...    .. .     ...   ",
"  ....     ...    ....     ..   ",
"   ...      ....    ...         ",
"    ....     ....    ....       ",
"     ....      ...     ..       ",
" . .  .. ..     ....    ..      ",
" ....  .. ..      ...    ..     ",
"  ....  ... ..      ..    ..    ",
"   ....  ......     ..     ..   ",
"     ..   ......     ..         ",
"      ..   .....      ..        ",
"       ..      ...     .        ",
"       ..        .              ",
"        .                       ",
"                                ",
"                                "
};
