/* XPM */
static char * exiton128_xpm[] = {
"128 128 18 1",
" 	c #103509",
".	c #2D0808",
"+	c #16500A",
"@	c #760303",
"#	c #000000",
"$	c #2B1A40",
"%	c #35204E",
"&	c #27183A",
"*	c #FFFFFF",
"=	c #07040A",
"-	c #1B181E",
";	c #D7C0F3",
">	c #2A1A3E",
",	c #2F1C45",
"'	c #120C19",
")	c #281B37",
"!	c #8F61C6",
"~	c #473062",
"                                                                                                                                ",
"                                                                                                                                ",
"                                                                                                                                ",
"                                                                                                                                ",
"                                                            ...              ....            +++                                ",
"                                                            ....@            .......         +++                                ",
"                        ++++                                ......           ..........      ++++                               ",
"                      ++++++             +++                .......          .............   +++++                              ",
"                      ++++++            ++++             ++.........         ... ......... ++++++++                             ",
"           +++        +++++             ++++             +...........@       ...    ...... +++++++++               +++          ",
"          ++++        +++    ++++       +++              +.....@......@      ...      .... +++ +++++               +++          ",
"         +++++               ++++       +++              .....@@@......@     ...  +++....  ++++ ++++               +++          ",
"        ++++++               ++++       ++++            .....@@@@@......@+   ...  +++....  +++++                   +++          ",
"        ++++        ++++     ++++       ++++            .....@@@@@@......@++ ...  +++....  ++++++           ++++   +++          ",
"        ++++        ++++     ++++       ++++          +.....@@@@@@@@.....@@++...  ++....    +++++         ++++++   +++          ",
"        ++++        ++++     +++++       +++         ++....@@@@@@@@@@....@@@+...    ....     ++++         ++++++                ",
"        ++++                  +++++     ++++         +#################...@@@...    ....                  +++++                 ",
"                               +++++    ++++        ###$%%%%%%%%%%%%$$$###@@@...   ....                                         ",
"                               ++++++  +++++    ++###%%%%%%%%%%%%%%%%%%$$####...   ....                                         ",
"                    +++++       +++++  ++++    +###%%%%%%%%%%%%%%%%%%%%%%%%$###.   ....   +++++      +++                        ",
"                    +++++        ++++++++++   +##$%%%%%%%%%%%%%%%%%%%%%%%%%%%$###+....    +++++      ++++                       ",
"                    +++++         ++++++++   +##%%%%%%%%%%%%%%%%%%%%%%%%%%%%%%$$##....    +++++      ++++  ++++       +++       ",
"                                  ######++   $##%%%%%%%%%%%%%%%%%%%%%%%%%%%%%%%%%%###############    ++++  ++++       ++++      ",
"                                ### +++###  +##%%%%%%%%%%%%%%%%%%%%%%%%%%%%%%%%%%%%%%%%%%&%%%&##      +++  ++++       ++++      ",
"                               ##    ++++#####%%%%%%%%%%%%%%%%%%%%%%%%%%%%%%%%%%%%%%%%%%%%%&&&        +++   +++       ++++      ",
"      +++++                    #     +++  ###%%%%%%%%%%%%%%%%%%%%%%%%%%%%%%%%%%%%%%%%%%%%%&&         ++++  ++++        +++      ",
"      ++++++++          +++                $$%%%%%%%%%%%%%%%%%%%%%%%%%%%%%%%%%%%%%%%%%%%%&#         +++++  ++++        +++      ",
"      ++++++++        +++++              ##$%%%%%%%%%%%%%%%%%%%%%%%%%%%%%%%%%%%%%%%%%%%%%&##       +++++   ++++        +++      ",
"         +++++    +++++++++             ##%%%%%%%%%%%%%%%%%%%%%%%%%%%%%%%%%%%%%%%%%%%%%%%%&##      +++++  ++++         +++      ",
"                  +++++++++            ##%%%%%%%%%%%%%%%%%%%%%%%%%%%%%%%%%%%%%%%%%%%%%%%%%%%##    +++++  +++++         +++      ",
"                  +++++++              #%%%%%%%%%%%%%%%%%%%%%%%%%%%%%%%%%%%%%%%%%%%%%%%%%%%%%##   ++++++++++++        ++++      ",
"                                       #%%%%%%%%%%%%%%%#%%%%%%%%%%%%%%%%%%%%%%%%%%%%%%%%%%%%%%#   +++++++++++         ++++      ",
"                                 ++++  #%%%%%%%%%%%%%%&#%%%%%%%%%%%%%%%%%%%%%%%%%%%%%%%%%%%%%%##   +++++++++          ++++      ",
"                                 +++++$#%%%%%%%%%%%%%%#%%%%%%%%%%%%%%%%%%%%%%%%%%%%%%%%%%%%%%%%#                                ",
"                                 +++++##%%%%%%%%%%%%%#&%%%%%#%%%%%%%%%%%%%%%%%%%%%%%%%%%%%%%%%%#                                ",
"                                  ++++#%%%%%%%%%%%%%%#%%%%%%#%%%%&#%%%%%%%%%%%%%%%%%%%%%%%%%%%%#                                ",
"                                     ##%%%%%%%%%%%%%%#%%%%%#%%%%%&#%%%%%%%%%%%%%%%%%%%%%%%%%%%%#                                ",
"                                     #$%%%%%%%%%%%%%%#%%%%%#$&#%%#&%%#&%%%%%%%&%%%%%%%%%%%%%%%%#  +++                           ",
"                                     #%%%%%%%%%%%%%%%#%%%%%#$##%&#&%%##%%%%%%%##%%%%%&%%%%%%%%%#  +++                           ",
"                    +++++++         .#%%%%%%%%%%%%%%%#%%%%%#$#%%####%%#%%%%%%%###%%%%&%%%%%%%%%#  ++++                          ",
"          +++++++++++++++++        ..#%%%%%%%%%%%%%%%#%%%%####%&#*##%%#%%%%%%%#*##%%%#%%%%%%%%%#  ++++      +++++++             ",
"          +++++++++++++++++       ...#%%%%%%%%%%%%%%%#%%%%####%##**#%##%%%%%#%#**###%#%%%%%%%%%#. ++++++++++++++++++            ",
"          +++++++++++++           ...#%%%%%%%%%%%%%%%#%%%%##*###***#%##%%%%%#%#*######%%%%%%%%%#.. ++++++++++++++++++           ",
"     ++++                        ....#%%%%%%%%%%%%%%%#%%%%#**####**#%##%%%%%#&###***##%%%%%%%%%#..@+++++++++++   ++++           ",
"     ++++                       .....#%%%%%%%%%%%%%%%#%%%%#**##*####%##%%%%%#&#**#####%%%%%###%#...+++           ++++           ",
"     ++++        +++            .....#%%%%%%%%%%%%%%%#%%%%#####***#####%%%%%##########%%%%%#@###....              +++           ",
"     +++         +++           .....@#$%%%%%%%%%%%%%%#%%%%########*##*#%%%%##====##**#%%%%%#@##.....              +++           ",
"                 +++           ....@@#$%%%%%%%%%%%%%%#%%%%#**=====##**#%#####=%%%%##*&%%%%&#@#@@.....             +++           ",
"                 +++          .....@@##%%%%%%%%%%%%%%#%%%%#*==%%%===#*####*#==%%%%%#*&%%%##@@#@@@....             +++           ",
"                 +++         .....@@@@#%%%%%%%%%%%%%%#%%%%#*=%%%%%%=*###****=%%%%%%#*&%%%#@@@@@@@.....            +++ +++       ",
"                 +++         .....@@@@#$%%%%%%%%%%%%%#%%%%#*=%%%%%%=********=%%%%%##*&%%#@@@@@@@@@....         ++++++++++       ",
"                            .....@@@@@#$%%%%%%%%%%%%%#%%%%#*=%%%%%%=********==%%%%#**#%%#@@@@@@@@@.....        ++++++++++       ",
"                           ...........#%%%%%%%%%%%%%%#%%%%#*==%%%%==*********=%%###*#####@@@@@@@@@@....        +++++++++        ",
"                           ...........#%%%%%%%%%%%%%%#%%%%#**==%%==***********####****##..........@.....         +++++          ",
"                           ...........#%%%%%%%%%%%%%%#%%%%#***====********#************#................                        ",
"                          ....@@@@@@@@#%%%%%%%%%%%%%%#%%%%#***********************#****##...............++++                    ",
"                          ....@@@@@@@@#%%%%%%%%%%%%%%#%%%%#*****************************#@...............+++                    ",
"                          ....@@@@@@@@#%%%%%%%%%%%%%%#%%%%#*****************************#@@@@@@@@@@@@....+++                    ",
"        +++               ...@@@@@@@@##%%%%%%%%%%%%%%#%%%%#********---***-----##*******#@@@@@@@@@@@@@....++                     ",
"        +++               ...@@@@@@@@#$%%%%%%%%%%%%%%#%%%%#********-;;-*--;;;;##*******#@@@@@@@@@@@@@@....                      ",
"        +++               ...@@@@@@@##&&%%%%%%%%%%%%%#%%%%#********-;;---;;;;;#*******#@@@@@@@@@@@@@@@....                      ",
"        +++               ...@@@@@@#####>%%%%%%%%%%%%##%%%#********--;;-;;;;;-#*******#@@@@@@@@@@@@@@@....                      ",
"        +++    +++        ...@@@@@@@@..##%%%%%%%%%%%%,#%%%#*********--;;;;;;-********##........@@@@@@@@...                      ",
"              ++++        ...@@@@@@@....##%%%%%%%%%%%%#%%%#**********---;;;--******###.........@@@@@@@@...   +++++++            ",
"              ++++        ...@@@@@@@.....#=%%%%%%%$%%%#%%%#************-----*****###...........@@@@@@@@...++++++++++            ",
"              +++         ...@@@@@@@....@@##%%%###$$%%#%%%#''')'''*************'''...@@@@@@@....@@@@@@@...++++++++++++          ",
"              ++++        ...@@@@@@@...@@@@#####=@'####%###!!!!!!!'''*****####''!'..@@@@@@@@....@@@@@@@...++++++   +++          ",
"              ++++        ...@@@@@@@...@@@@@@@..'''!!!##!##!!!!!!!!!!'#####!!!!!!!#.@@@@@@@@....@@@@@@@...        ++++          ",
"              +++++       ...@@@@@@@...@@@@@@@.''!!!!!##!##!!!!!!!!!!'''!!!!!!###!)''@@@@@@@@...@@@@@@@...    ++++++++          ",
"               +++++      ...@@@@@@@...@@@@@@@''!!!!!!!!!!!!!!)'''!!!!!''!!!'##!!!!!!'@@@@@@@...@@@@@@@...    ++++++++          ",
"               +++++      ...@@@@@@@...@@@@@##'!!!!!'!!!!!!!!!!!!''''!!!!!!!##)'')!!!''@@@@@@...@@@@@@@...    +++++++  +++      ",
"                ++++      ...@@@@@@@.......#!!!!!!!!!''''!!!!!!!!!!!''!!!#!!!!!!!!!!!!'''@@@@...@@@@@@@...             ++++     ",
"                 +++      ...@@@@@@@......##!!!!!!!!!!!!!'###'''''!!!!!!!#!!!!!!!!!!!!!!''..@...@@@@@@@...             ++++     ",
"                          ...@@@@@@@.....''!!!!!!!!!!!!!!!!!!!!!!!!#!!!!!'!!!!!!!!!!!!!!!''.....@@@@@@@...              +++     ",
"               +++        ...@@@@@@@@@@@@'!!!!!!!!!!!!!!!!!!!!!!!!!#!!!!!'!!!!!!!!!!!!!!!!''.....@@@@@@....++++         +++     ",
"             +++++        ...@@@@@@@@@@@@'!!!'###!!!!!!!!!!!!!!!!!!#!!!!!'!!!!!!!!!!'''!!!!'.....@@@@@@....+++++++      +++     ",
"          ++++++++        ...@@@@@@@@@@@@'!!!!!###!!!!!!!!!!!!!!!!!#!!!!!'!!!!!!!!!!!!!!!!''@....@@@@@@....++++++++++   +++     ",
"         +++++++++        ...@@@@@@@@@@@#'!!!!!!##!!!!!!!!!!!!!!!!!#!!!!!'!!!!!!!#!!!!!!!!'@@@@@@@@@@@@@... +++++++++   +++     ",
"         +++++++        ++...@@@@@@@@@@@#'!!!!!!!##!!!!!!!!!!!!!!!!#!!!!!'!!!!!!!#!!!!!''''@@@@@@@@@@@@@...    ++++++   +++     ",
"         +++          ++++...@@@@@@@@@@@#'''!'!!!!!!!!!!!!!!!!!!!!!!!!!!!'!!!!!!!#!!!'''*##@@@@@@@@@@@@@...            ++++     ",
"                     +++++...@@@@@@@@@@##*#''''!!#!!!!!!!!!!!!!!!!!!!!!!!'!!!!!!!')!''****##@@@@@@@@@@@@...            ++++     ",
"                    +++++....@@@@@@@@@@#*****#####!!!!!!!!!!!!!!!!!!!!!!!'!!!!!!!!)''******##@@@@@@@@@@@...+++         +++      ",
"                    +++++....@@@@@@@@@#********##!!!!!!!!!!!!!!!!!!!!!!!!!!!!!!!!!'*********#@@@@@@@@@@@...+++                  ",
"                    +++  ....@@@@@@@@@#********##!!!!!!!!!!!!!!!!!!!!!!!!!!!!!!!!!'*********#@@@@@@@@@@@...+++                  ",
"                         ...@@@@@@@@@@#********#!!!!!!!!!!!!!!!!!!!!!!!!!!!!!!!!!!)'********#@@@@@@@@@@@...+++                  ",
"                         ....@@@@@@@@@##*******#!!!!!!!!!!!!!!!!!!!!!!!!!!!!!!!!!!!'********#@@@@@@@@@@@...+++                  ",
"                         ....@@@@@@@@@@#******##!!!!!!!!!!!!!!!!!!!!!!!!!!!!!!!!!!!'*******#@@@@@@@@@@@@...++                   ",
"          +++        ++++....@@@@@@@@@@##*****#!!!!!!!!!!!!!!!!!!!!!!!!!!!!!!!!!!!!'******##@@@@@@@@@@@@...    ++++             ",
"          ++++       +++++...@@@@@@@@@@@###***#!!!!!!!!!!!!################~!!!!!!''##***##@@@@@@@@@@@@@...   +++++             ",
"          ++++       +++++...@@@@@@@@@@@@@#####!!!!###########################'!!!'@@#####@@@@@@@@@@@@@@... +++++++             ",
"          ++++++          ...@@@@@@@@@@@@@@@@@#################################''''@@@@@@@@@@@@@@@@@@@@@....++++++              ",
"           +++++          ...@@@@@@@@@@@@@@@@@######################################@@@@@@@@@@@@@@@@@@@@....+++++               ",
"           +++++          ...@@@@@@@@@@@@@@@@@#######################################@@@@@@@@@@@@@@@@@@@....+++    +++          ",
"                          ...@@@@@@@@@@@@@@@@@########################################@@@@@@@@@@@@@@@@@@@....      +++          ",
"                          ....@@@@@@@@@@@@@@@@#########################################@@@@@@@@@@@@@@@@@@....      +++          ",
"                          ....@@@@@@@@@@@@@@@@#########################################@@@@@@@@@@@@@@@@@@....++    +++          ",
"           +++            ....@@@@@@@@@@@@@@@@##########################################@@@@@@@@@@@@@@@@@@....++   +++          ",
"           ++++++          ...@@@@@@@@@@@@@@@@##########################################@@@@@@@@@@@@@@@@@@....++   +++          ",
"           ++++++          ...@@@@@@@@@@@@@@@#######################@####################@@@@@@@@@@@@@@@@@.....+   +++          ",
"           ++++++          ....@@@@@@@@@@@...######################..####################@@@@@@@@@@@@@@@@@@....                 ",
"           ++++++          ....@@@@@.........#####################...####################@@@@@@@@@@@@@@@@@@.....                ",
"           ++++++++++      ..................####################@@@@..##################@@@@@@@@@@@@@@@@@@@.....               ",
"           ++++++++++       .................####################@@@@..##################@@@@@@@@@@@@@@@@@@@.....               ",
"              +++++++       ..........   ++++###################@@@@@... ###############....@@@@@@@@@@@@@@@@@....               ",
"                            ....              ################@@@@@@@...        .....................@@@@@@@@@...               ",
"                  +++                                 ....@@@@@@@@@@@...           .......................@@@@...               ",
"                  ++++             ++++               ....@@@@@@@@@@@...                 ........................               ",
"                  ++++            +++++              .....@@@@@@@@@@@...+                         ...............               ",
"                  ++++            +++++              ....+.@@@@@@@@@....++                    +++      ..........               ",
"                   +++            ++++               ...++..@@@@@@@@...++++     ++++          ++++  ++++++                      ",
"                                                      ++++..@@@@@@@@...++++    +++++          ++++++++++++                      ",
"                                  ++++          +++   +++...@@@@@@@... ++++   ++++++          ++++++++++++                      ",
"                 +++            ++++++         ++++   +++....@@@@@@...        +++++            ++++++++           +++           ",
"                 +++++       +++++++++       ++++++   ++....@@@@@@@@.         ++++                                ++++          ",
"                 ++++++   +++++++++++   ++++ ++++++   ++....@@@@@@@@.                                             ++++++        ",
"                 ++++++   +++++++++     +++++++++      ....@@@@@@@@@.                                             ++++++        ",
"                   +++++++++++++        +++++++++    ......@@@@@@@@@.     ++++++++                                 +++++        ",
"     +++++++        ++++++                +++++++++......@@@@@@@@@@.      ++++++++                         ++++                 ",
"     +++++++         +++++                  ++++++......@@@@@@@@@@@.      ++++++++                        +++++                 ",
"     +++++++                                   +......@@@@@@@@@@@@..           +++                       ++++++                 ",
"                  ++++ +++++                   .....@@@@@@@@@@@@@..                                      +++++                  ",
"                  ++++++++++                 ......@@@@@@@@@@@@@...   ++++                               ++++                   ",
"                  ++++++++++                .....@@@@@@@@@@@@@@...   +++++                     +++++                            ",
"                   +++++++                ......@@@@@@@@@@@@@..... +++++++                  ++++++++                            ",
"                                   ..@@@@.......@@@@@@@@@@....... +++++++                   ++++++++                            ",
"                                 ....@@@@@@@@..@@@@@@@@.........  ++++++                    ++++++                              ",
"                                 ....@@@@@@@@@@@@@@@@.........    ++++                                                          ",
"                                 .....@@@@@@@@@@@@@@........                                                                    "};
