/* XPM */
static char * exit_xpm[] = {
"128 128 4 1",
" 	c #103509",
".	c #2D0808",
"+	c #16500A",
"@	c #760303",
"                                                                                                                                ",
"                                                                                                                                ",
"                                                                                                                                ",
"                                                                                                                                ",
"                                                            ...              ....            +++                                ",
"                                                            ....@            .......         +++                                ",
"                        ++++                                ......           ..........      ++++                               ",
"                      ++++++             +++                .......          .............   +++++                              ",
"                      ++++++            ++++             ++.........         ... ......... ++++++++                             ",
"           +++        +++++             ++++             +...........@       ...    ...... +++++++++               +++          ",
"          ++++        +++    ++++       +++              +.....@......@      ...      .... +++ +++++               +++          ",
"         +++++               ++++       +++              .....@@@......@     ...  +++....  ++++ ++++               +++          ",
"        ++++++               ++++       ++++            .....@@@@@......@+   ...  +++....  +++++                   +++          ",
"        ++++        ++++     ++++       ++++            .....@@@@@@......@++ ...  +++....  ++++++           ++++   +++          ",
"        ++++        ++++     ++++       ++++          +.....@@@@@@@@.....@@++...  ++....    +++++         ++++++   +++          ",
"        ++++        ++++     +++++       +++         ++....@@@@@@@@@@....@@@+...    ....     ++++         ++++++                ",
"        ++++                  +++++     ++++         +.....@@@@@@@@@@@....@@@...    ....                  +++++                 ",
"                               +++++    ++++         .....@@@@@@@@@@@@....@@@...   ....                                         ",
"                               ++++++  +++++    +++ ......@@@@@@@@@@@@.....@@...   ....                                         ",
"                    +++++       +++++  ++++    ++++ .....@@@@@@@@@@@@@@....@@...   ....   +++++      +++                        ",
"                    +++++        ++++++++++   +++++.....@@@@@@@@@@@@@@@.....@...@+....    +++++      ++++                       ",
"                    +++++         ++++++++   +++++.....@@@@@@@@@@@@@@@@@........@@....    +++++      ++++  ++++       +++       ",
"                                   +++++++   ++++......@@@@@@@@@@@@@@@@@........@.....               ++++  ++++       ++++      ",
"                                    +++++   ++++......@@@@@@@@@@@@@@@@@@@.......@....                 +++  ++++       ++++      ",
"                                     ++++   +++......@@@@@@@@@@@@@@@@@@@@@......@....                 +++   +++       ++++      ",
"      +++++                          +++   +++......@@@@@@@@@@@@@@@@@@@@@@@.........@@               ++++  ++++        +++      ",
"      ++++++++          +++                ++......@@@@@@@@@@@@@@@@@@@@@@@@@........@@              +++++  ++++        +++      ",
"      ++++++++        +++++                +......@@@@@@@@@@@@@@@@@@@@@@@@@@@.......@@@ ++++       +++++   ++++        +++      ",
"         +++++    +++++++++                ......@@@@@@@@@@@@@@@@@@@@@@@@@@@@@@.......@+++++       +++++  ++++         +++      ",
"                  +++++++++                .....@@@@@@@@@@@@@@@@@@@@........@@@@.......@++++      +++++  +++++         +++      ",
"                  +++++++                 .....@@@@@@@@@@@@@@@@@.............@@@@......@+++       ++++++++++++        ++++      ",
"                                         .....@@@@@@@@@@@@@@@@................@@@@@.....@+        +++++++++++         ++++      ",
"                                 ++++    .....@@@@@@@@@@@@@@...........@@.....@@@@@@.....+         +++++++++          ++++      ",
"                                 +++++  .....@@@@@@@@@@@@@...........@@@@@....@@@@@@.....@@                                     ",
"                                 +++++ .....@@@@@@@@@@@@@@......@@...@@@@@@....@@@@@@.....@                                     ",
"                                  ++++ .....@@@@@@@@@@@@@@.....@@@...@@@@@@....@@@@@@@.....@                                    ",
"                                      .....@@@@@@@@@@@@@@@...@@@@....@@@@@@....@@@@@@@......                                    ",
"                                     .....@@@@@@@@@@@@@@@@...@@@@....@@@@@@@...@@@@@@@@......     +++                           ",
"                                     .....@@@@@@@@@@@@@@@@...@@@@....@@@@@@@...@@@@@@@@@......    +++                           ",
"                    +++++++         .....@@@@@@@@@@@@@@@@@...@@@@..............@@@@@@@@@@......   ++++                          ",
"          +++++++++++++++++        .....@@@@@@@@@@@@@@@@@@...@.................@@@@@@@@@@@......  ++++      +++++++             ",
"          +++++++++++++++++       ......@@@@@@@@@@@@@@@@@@...@.................@@@@@@@@@@@@...... ++++++++++++++++++            ",
"          +++++++++++++           .....@@@@@@@@@@@@@@@@@@@...@.......@@@@@@...@@@@@@@@@@@@@@...... ++++++++++++++++++           ",
"     ++++                        .....@@@@@@@@@@@@@@@@@@@@....@@@....@@@@@@...@@@@@@@@@@@@@@@.....@+++++++++++   ++++           ",
"     ++++                       .....@@@@@@@@@@@@@@@@@@@@@....................@@@@@@@@@@@@@@@@.....+++           ++++           ",
"     ++++        +++            .....@@@@@@@@@@@@@@@@@@@@@....................@@@@@@@@@@@@@@@@@.....              +++           ",
"     +++         +++           .....@@@@@@@@@@@@@@@@@@@@@@@...................@@@@@@@@@@@@@@@@@.....              +++           ",
"                 +++           ....@@@@@@@@@@@@@@@@@@@@@@@@@@@@@@@@@@@@@@@@@@@@@@@@@@@@@@@@@@@@@.....             +++           ",
"                 +++          .....@@@@@@@@@@@@@@@@@@@@@@@@@@@@@@@@@@@@@@@@@@@@@@@@@@@@@@@@@@@@@@....             +++           ",
"                 +++         .....@@@@@@@@@@@@@@@@@@@@@@@@@@@@@@@@@@@@@@@@@@@@@@@@@@@@@@@@@@@@@@@.....            +++ +++       ",
"                 +++         .....@@@@@@@@@@@@@@@@@@@@@@@@@@@@@@@@@@@@@@@@@@@@@@@@@@@@@@@@@@@@@@@@....         ++++++++++       ",
"                            .....@@@@@@@@@@@@@@@@@@@@@@@@@@@@@@@@@@@@@@@@@@@@@@@@@@@@@@@@@@@@@@@@@.....        ++++++++++       ",
"                           ..........................................@@@@@@@@@@@@@@@@@@@@@@@@@@@@@@....        +++++++++        ",
"                           .......................................................................@.....         +++++          ",
"                           .............................................................................                        ",
"                          ....@@@@@@@@@@@@@@@@@@@@@@@@@@@@@@@@@@@@......................................++++                    ",
"                          ....@@@@@@@@@@@@@@@@@@@@@@@@@@@@@@@@@@@@@@@@@@@@@@@@@@@@@@@@@@@@...............+++                    ",
"                          ....@@@@@@@@@@@@@@@@@@@@@@@@@@@@@@@@@@@@@@@@@@@@@@@@@@@@@@@@@@@@@@@@@@@@@@@....+++                    ",
"        +++               ...@@@@@@@@@@@@@@@@@@@@@@@@@@@@@@@@@@@@@@@@@@@@@@@@@@@@@@@@@@@@@@@@@@@@@@@@....++                     ",
"        +++               ...@@@@@@@@@@@@@@@@@@@@@@@@@@@@@@@@@@@@@@@@@@@@@@@@@@@@@@@@@@@@@@@@@@@@@@@@@....                      ",
"        +++               ...@@@@@@@@@@@@@@@@@@@@@@@@@@@@@@@@@@@@@@@@@@@@@@@@@@@@@@@@@@@@@@@@@@@@@@@@@....                      ",
"        +++               ...@@@@@@@@@@@@@@@@@@@@@@@@@@@@@@@@@@@@@@@@@@@@@@@@@@@@@@@@@@@@@@@@@@@@@@@@@....                      ",
"        +++    +++        ...@@@@@@@@............@@@@@@@@@@@@@@@@@@@@@@@@@@@@@@@@@.............@@@@@@@@...                      ",
"              ++++        ...@@@@@@@.............@@@@@@@@@@@@@@@@@@@@@@@@@@@@@@@@..............@@@@@@@@...   +++++++            ",
"              ++++        ...@@@@@@@.............@@@@@@@@@@@@@@@@@@@@@@@@@@@@@@@@..............@@@@@@@@...++++++++++            ",
"              +++         ...@@@@@@@....@@@@@@...@@@@@@@@@@@@@@@@@@@@@@@@@@@@@@@@....@@@@@@@....@@@@@@@...++++++++++++          ",
"              ++++        ...@@@@@@@...@@@@@@@...@@@@@@@@@@@@@@@@@@@@@@@@@@@@@@@@...@@@@@@@@....@@@@@@@...++++++   +++          ",
"              ++++        ...@@@@@@@...@@@@@@@...@@@@@@@@@@@@@@@@@@@@@@@@@@@@@@@....@@@@@@@@....@@@@@@@...        ++++          ",
"              +++++       ...@@@@@@@...@@@@@@@...@@@@@@@@@@@@@@@@@@@@@@@@@@@@@@@....@@@@@@@@@...@@@@@@@...    ++++++++          ",
"               +++++      ...@@@@@@@...@@@@@@@...@@@@@@@@@@@@@@@@@@@@@@@@@@@@@@@....@@@@@@@@@...@@@@@@@...    ++++++++          ",
"               +++++      ...@@@@@@@...@@@@@@@...@@@@@@@@@@@@@@@@@@@@@@@@@@@@@@@.....@@@@@@@@...@@@@@@@...    +++++++  +++      ",
"                ++++      ...@@@@@@@.............@@@@@@@@@@@@.....@@@@@@@@@@@@@@........@@@@@...@@@@@@@...             ++++     ",
"                 +++      ...@@@@@@@.............@@@@@@@@@@@@.......@@@@@@@@@@@@............@...@@@@@@@...             ++++     ",
"                          ...@@@@@@@.............@@@@@@@@@@@@..........@@@@@@@@@@@..............@@@@@@@...              +++     ",
"               +++        ...@@@@@@@@@@@@@.......@@@@@@@@@@@@..............@@@@@@@@@@@...........@@@@@@....++++         +++     ",
"             +++++        ...@@@@@@@@@@@@@@@@@@@@@@@@@@@@@@@@...@..........@@@@@@@@@@@@@@........@@@@@@....+++++++      +++     ",
"          ++++++++        ...@@@@@@@@@@@@@@@@@@@@@@@@@@@@@@@....@@@@.......@@@@@@@@@@@@@@@@@@....@@@@@@....++++++++++   +++     ",
"         +++++++++        ...@@@@@@@@@@@@@@@@@@@@@@@@@@@@@@@....@@@@@@@@...@@@@@@@@@@@@@@@@@@@@@@@@@@@@@... +++++++++   +++     ",
"         +++++++        ++...@@@@@@@@@@@@@@@@@@@@@@@@@@@@@@@....@@@@@@@@....@@@@@@@@@@@@@@@@@@@@@@@@@@@@...    ++++++   +++     ",
"         +++          ++++...@@@@@@@@@@@@@@@@@@@@@@@@@@@@@@@...@@@@@@@@@....@@@@@@@@@@@@@@@@@@@@@@@@@@@@...            ++++     ",
"                     +++++...@@@@@@@@@@@@@@@@@@@@@@@@@@@@@@@...@@@@@@@@@....@@@@@@@@@@@@@@@@@@@@@@@@@@@@...            ++++     ",
"                    +++++....@@@@@@@@@@@@@@@@@@@@@@@@@@@@@@....@@@@@@@@@@...@@@@@@@@@@@@@@@@@@@@@@@@@@@@...+++         +++      ",
"                    +++++....@@@@@@@@@@@@@@@@@@@@@@@@@@@@@@....@@@@@@@@@@...@@@@@@@@@@@@@@@@@@@@@@@@@@@@...+++                  ",
"                    +++  ....@@@@@@@@@@@@@@@@@@@@@@@@@@@@@@....@@@@@@@@@@...@@@@@@@@@@@@@@@@@@@@@@@@@@@@...+++                  ",
"                         ...@@@@@@@@@@@@@@@@@@@@@@@@@@@@@@@...@@@@@@@@@@@...@@@@@@@@@@@@@@@@@@@@@@@@@@@@...+++                  ",
"                         ....@@@@@@@@@@@@@@@@@@@@@@@@@@@@@@...@@@@@@@@@@@...@@@@@@@@@@@@@@@@@@@@@@@@@@@@...+++                  ",
"                         ....@@@@@@@@@@@@@@@@@@@@@@@@@@@@@@......@@@@...@...@@@@@@@@@@@@@@@@@@@@@@@@@@@@...++                   ",
"          +++        ++++....@@@@@@@@@@@@@@@@@@@@@@@@@@@@@@......@@@@...@...@@@@@@@@@@@@@@@@@@@@@@@@@@@@...    ++++             ",
"          ++++       +++++...@@@@@@@@@@@@@@@@@@@@@@@@@@@@@@@.....@@@@...@...@@@@@@@@@@@@@@@@@@@@@@@@@@@@...   +++++             ",
"          ++++       +++++...@@@@@@@@@@@@@@@@@@@@@@@@@@@@@@@.....@@@@@@@@...@@@@@@@@@@@@@@@@@@@@@@@@@@@@... +++++++             ",
"          ++++++          ...@@@@@@@@@@@@@@@@@@@@@@@@@@@@@@@....@@@@@@@@....@@@@@@@@@@@@@@@@@@@@@@@@@@@@....++++++              ",
"           +++++          ...@@@@@@@@@@@@@@@@@@@@@@@@@@@@@@@....@@@@@@@@....@@@@@@@@@@@@@@@@@@@@@@@@@@@@....+++++               ",
"           +++++          ...@@@@@@@@@@@@@@@@@@@@@@@@@@@@@@@....@@@@@@@@....@@@@@@@@@@@@@@@@@@@@@@@@@@@@....+++    +++          ",
"                          ...@@@@@@@@@@@@@@@@@@@@@@@@@@@@@@@....@@@@@@@....@@@@@@@@@@@@@@@@@@@@@@@@@@@@@@....      +++          ",
"                          ....@@@@@@@@@@@@@@@@@@@@@@@@@@@@@@....@@@@@@@....@@@@@@@@@@@@@@@@@@@@@@@@@@@@@@....      +++          ",
"                          ....@@@@@@@@@@@@@@@@@@@@@@@@@@@@@@....@@@@@@.....@@@@@@@@@@@@@@@@@@@@@@@@@@@@@@....++    +++          ",
"           +++            ....@@@@@@@@@@@@@@@@@@@@@@@@@@@@@@...@@@@@@@....@@@@@@@@@@@@@@@@@@@@@@@@@@@@@@@@....++   +++          ",
"           ++++++          ...@@@@@@@@@@@@@@@@@@@@@@@@@@@@@@...@@@@@@@....@@@@@@@@@@@@@@@@@@@@@@@@@@@@@@@@....++   +++          ",
"           ++++++          ...@@@@@@@@@@@@@@@@@@@@@@@@@@@@@@...@@@@@@@...@@@@@@@@@@@@@@@@@@@@@@@@@@@@@@@@@.....+   +++          ",
"           ++++++          ....@@@@@@@@@@@........@@@@@@@@@@...@...........@@@@@@@@@@@@@@@@@@@@@@@@@@@@@@@@....                 ",
"           ++++++          ....@@@@@...........................................@@@@@@@@@@@@@@@@@@@@@@@@@@@@.....                ",
"           ++++++++++      ......................................@@@@..............@@@@@@@@@@@@@@@@@@@@@@@@@.....               ",
"           ++++++++++       .................++..............@@@@@@@@.................@@@@@@@@@@@@@@@@@@@@@@.....               ",
"              +++++++       ..........   ++++++        .....@@@@@@@@@...    ................@@@@@@@@@@@@@@@@@....               ",
"                            ....                       .....@@@@@@@@@...        .....................@@@@@@@@@...               ",
"                  +++                                 ....@@@@@@@@@@@...           .......................@@@@...               ",
"                  ++++             ++++               ....@@@@@@@@@@@...                 ........................               ",
"                  ++++            +++++              .....@@@@@@@@@@@...+                         ...............               ",
"                  ++++            +++++              ....+.@@@@@@@@@....++                    +++      ..........               ",
"                   +++            ++++               ...++..@@@@@@@@...++++     ++++          ++++  ++++++                      ",
"                                                      ++++..@@@@@@@@...++++    +++++          ++++++++++++                      ",
"                                  ++++          +++   +++...@@@@@@@... ++++   ++++++          ++++++++++++                      ",
"                 +++            ++++++         ++++   +++....@@@@@@...        +++++            ++++++++           +++           ",
"                 +++++       +++++++++       ++++++   ++....@@@@@@@@.         ++++                                ++++          ",
"                 ++++++   +++++++++++   ++++ ++++++   ++....@@@@@@@@.                                             ++++++        ",
"                 ++++++   +++++++++     +++++++++      ....@@@@@@@@@.                                             ++++++        ",
"                   +++++++++++++        +++++++++    ......@@@@@@@@@.     ++++++++                                 +++++        ",
"     +++++++        ++++++                +++++++++......@@@@@@@@@@.      ++++++++                         ++++                 ",
"     +++++++         +++++                  ++++++......@@@@@@@@@@@.      ++++++++                        +++++                 ",
"     +++++++                                   +......@@@@@@@@@@@@..           +++                       ++++++                 ",
"                  ++++ +++++                   .....@@@@@@@@@@@@@..                                      +++++                  ",
"                  ++++++++++                 ......@@@@@@@@@@@@@...   ++++                               ++++                   ",
"                  ++++++++++                .....@@@@@@@@@@@@@@...   +++++                     +++++                            ",
"                   +++++++                ......@@@@@@@@@@@@@..... +++++++                  ++++++++                            ",
"                                   ..@@@@.......@@@@@@@@@@....... +++++++                   ++++++++                            ",
"                                 ....@@@@@@@@..@@@@@@@@.........  ++++++                    ++++++                              ",
"                                 ....@@@@@@@@@@@@@@@@.........    ++++                                                          ",
"                                 .....@@@@@@@@@@@@@@........                                                                    "};
