/* XPM */
static char *e9b32d4e319649ff92ab5aa4a1e18f0e[] = {
/* columns rows colors chars-per-pixel */
"64 64 119 2 ",
"   c black",
".  c #010600",
"X  c #010B01",
"o  c #020E01",
"O  c #0C0C0C",
"+  c #120C01",
"@  c #021202",
"#  c #031702",
"$  c #041A03",
"%  c #051E03",
"&  c #051F04",
"*  c #0C180C",
"=  c #0D1F0C",
"-  c #191201",
";  c #052106",
":  c #072505",
">  c #0A2707",
",  c #092A06",
"<  c #092E07",
"1  c #052308",
"2  c #0A2009",
"3  c #0D250C",
"4  c #092B08",
"5  c #082C0B",
"6  c #0E2C0B",
"7  c #082C0C",
"8  c #093007",
"9  c #093309",
"0  c #0C3309",
"q  c #093509",
"w  c #0E360A",
"e  c #093B0B",
"r  c #0F3A0B",
"t  c #0F3A0C",
"y  c #093E0C",
"u  c #0F3D0C",
"i  c #1C3C0C",
"p  c #043317",
"a  c #0B3711",
"s  c #0C3810",
"d  c #3B2C03",
"f  c #3F2F02",
"g  c #382A04",
"h  c #3F2F05",
"j  c #282222",
"k  c #2A2525",
"l  c #342D2D",
"z  c #383131",
"x  c #3D3434",
"c  c #661E03",
"v  c #402F02",
"b  c #433101",
"n  c #463300",
"m  c #473400",
"M  c #403005",
"N  c #692006",
"B  c #6D250C",
"V  c #762E15",
"C  c #0F400D",
"Z  c #0E460F",
"A  c #0E4C0D",
"S  c #0E510E",
"D  c #0E4D11",
"F  c #0E5012",
"G  c #5D480F",
"H  c #644B13",
"J  c #63571A",
"K  c #9A741A",
"L  c #B07B0D",
"P  c #B17C0F",
"I  c #B27E11",
"U  c #B8800A",
"Y  c #BB820E",
"T  c #B78417",
"R  c #BD8613",
"E  c #B98714",
"W  c #BE9223",
"Q  c #AAAA2B",
"!  c #C98903",
"~  c #CA8A06",
"^  c #C78F0C",
"/  c #C98C0C",
"(  c #CD8E0D",
")  c #C8900C",
"_  c #C28E14",
"`  c #CA9316",
"'  c #CE9717",
"]  c #D29617",
"[  c #D39B18",
"{  c #C69824",
"}  c #CD9B23",
"|  c #D09F25",
" . c #D4A126",
".. c #D8A325",
"X. c #DBA727",
"o. c #DDA827",
"O. c #DDB12A",
"+. c #E0A926",
"@. c #E2AC27",
"#. c #E3AC28",
"$. c #E7AF28",
"%. c #E6B329",
"&. c #E9B329",
"*. c #EDB329",
"=. c #EEB429",
"-. c #6B679F",
";. c #8080AD",
":. c #80BBAD",
">. c #9A95CF",
",. c #9992DC",
"<. c #9D97DF",
"1. c #A49FE4",
"2. c #A7A0E5",
"3. c #A9A3E7",
"4. c #AEA8EA",
"5. c #B3AEEE",
"6. c #B6B0F0",
"7. c #BAB5F3",
"8. c #C3BEF9",
/* pixels */
"r r r r r r r r r r r r r r r r r r r r r r r r r r r r r r r r r r r r r r r r r r t t t t t r r r r r r r r r r r r r r r r r ",
"r r r r r r r r r r r r r r r r r r r r r r r r r r r r r r r r r r r r r r r r r r t t     o % Z r t r r r r r r r r r r r r r ",
"r r r r r r r r r r r r r r r r r r r r r r , , r r r , , 4 t Z Z t t r r r r u r t t 6 z z x       p t u r r r r r r r r r r r ",
"r , , , , , , r r r r r r , , , , , r r r , , % % % , , t @ @ @ . .       , , < & q     z x x x l x   r < , r r r r r r r r r r ",
"r r r r r r r r , % , , , , , , , , , , , r r r r Z Z       O O O ] O O   $ r r t u ;   l x x z x x   r r , , r r r r r r r r r ",
"r r r r r r r , , r r r r r r , , , , , , , r t t       O ] ] ] ( ] ] ] ] O   X   $ . x z k x k x l   r t r r r , r , r r r r r ",
"r r r r r % % , r r r , , , , r r r r r r r Z O     O ] ] ] ] L L I ( ( ] ] R ] ] ]     x     x x j   , , r r r , , , , r r r r ",
"r r r , , % r r r , , r r r r r r r r r r % @     O O ] ] ( ! U R ] ] Y Y P P Y _ ] ] ] O   x x l   a t < r r r r r r r r r r r ",
"r r r r , , r r r r , % % , , , , , , r 0   O O ] R R R R P R ] ] ] O O ( ( R / P L ] ] ] O j x x   , , , r r r , , r r , r r r ",
"r r r r , , , r r r r r , , r r r r r Z   O ] ] R Y ] ] R Y R ]   O O     ( I I ] ( I P ] ] O j l   t r r r r r r r r r r r r r ",
"r r r , , r r r r r r r , % , r r r C $   ] ] R R ( ] ~ ~ ] ] O   7.3.6.6.O O ~ ] _ / L ( ] ] O O   Z r r r r r r r r r r r r r ",
"r r r , r r r r r r r r r r , , , ;     O ] ] Y ~ Y ( ~ ] ] R     7.<.1.1.5.O ] ( P ] ] Y P ] ]     t r r r r , , r r , r r r r ",
"r r r , , , , , r r r r r r r r r t   O ] R I Y ( ( R ~ ~ ] ]     1.,.5.1.<.3.O ] I I _ Y I P ]     4 , % , , , , r r , r r r r ",
"r r r , , r r r r r , % % % % r A @   O ] E ( ~ ( ] R ] Y Y ]     1.6.>.>.7.8.  ] / ~ Y _ ] P ]     t r r , , , r r r r r r r r ",
"r r , , r r r , , r r r r r r C #   O ] ] ] ] ] ] ] Y / ( ] ( ] O -.7.          I ] ( _ ] ] I _     t r r r r r r r , r r r r r ",
"r r , r r r r r , % % % , r r S   ] ( Y R Y ( Y Y R ] Y ( ] ( ] ]           ] ( _ P ( I Y Y I ( ] O t , r r r r r r , , r r r r ",
"r r , r r , r , , r r , Z t t @   ] ( R ] ] R R ] ] Y Y ] ] P I ] ] ] ] ]   R R R R ] Y L R R R ] O t r r r r , , , r , , r r r ",
"r r , r , , , , r r r , < r 0   O T ] ] ] ] ] ] ] ] R I P P R ] ] ] Y Y ] ] ] ( O ] ] ] ( ( ] R R p t r r r , r r r r r , r r r ",
"r r r r r r , r r r r r , , 4           O O O O ] ] ] ] ( ] ] ] ] O O ] ] ] O O O V O O O ] ] O O p y r , , r r r r r , r r r r ",
"r r r % , , , r r r , , r r t   O V V V V           O O ] O ] ]       O O O O V V V V V O O O O s 4 8 r r r r r r r r , r r r r ",
"r r r , r r r r r r r r r r t   O V B V V V V V V V V O O         V V V V V B B B B V V V V V O Z r r , , , r r r r r , r r r r ",
"r r r % , , , , , r r % % ; 4   O V B V B B B B B B B V V V V V V V V V c B B V B B B B B V V O C , r r r r r r r , r , r r r r ",
"r r r r r r r r r r , , r 9 , t O B N V B V V V V V V V V V V V B c c N B V V B B V B V N N V O , , , r r r r r r r r , r r r r ",
"r , r r r r r r r r r , r u 4 = O V B V O             O O O V V B B V V V V V V V V V V N V V O r , % , , , , , , , r , r r r r ",
"r , r , r r r , , , , , r u t O V V B O O O 8.7.7.8.O O 8.O O V B B B B B B B B B V V V B V V O t % , , r r r r r r r r r r r r ",
"r r r r r % , , r r r r r r , O B B V   O 8.7.1.1.2.6.6.3.  O V V B B V V B V V B B V B B V V O 5 u r , r r r r r r , , , r r r ",
"r r r r r , , r r r r , , , , O V V V   O 8.6.2.<.,.2.7.1.8.O V V N B V N N V V V V V B V V V O 7 , r r r r r r r , r r , r r r ",
"r r r r r r , , , r r r r r 4 O V B B   O 4.2.7.3.1.,.<.5.8.O V B B V V V V V V V V B N B V V O O u r r r r r , , , r r , r r r ",
"r r r r , , , , , , , r , , 5 O V V B O O 8.3.2.3.8.8.5.6.6.O V V B V V V O O V V V V c V V V V O r , , r r r , r r r r , r r r ",
"r r r r r r r r r r r r r , t O V B V O O O O O O O O O O O O B B B V V   O :.O O O V B B B B V O , , r r r , , r r r , , r r r ",
"r r % , , , , r r r r , , y O O V B V V V V V V V V V V V V V B B B V V   6.1.6.1.O V V B B B B O r r r r r r r r r , % r r r r ",
"r r , r r r % % r r , , , y O V V B V B V V V V B V V V V V V B N B V O O 5.1.5.1.8.O V V B B V O t r r , r r , r , , , r r r r ",
"r r , r r r , r r r r r r e O V V B N B B B B B B B N B B N B B B V V O 6.1.5.1.5.1.  V V B B V O t % % , r r , r r r r r r r r ",
"r r , r , r r r r , r r r , O V V B B B V V V V N N N V V V V V V V V O 3.<.5.1.6.;.  V V V N V O t , r r r r r r r r r r r r r ",
"r r , , % , r r , , r r r 1 O V V B V N N B V V V V V V V V B B B B V O 8.3.1.3.1.1.  V V B B V O t , r r r r r r r r r r r r r ",
"r r r r r , , , , r , , r $ O V V B V V V     O O O           V V V V V       8.4.    V N B V V O w r , , r % % , , r , r r r r ",
"r r , r r , r r r r r , , : O V V B V V     O m n n m m O         V V V V V V       V V B V V V O w r , , , , r r r r r r r r r ",
"r r r r , % r , , , r , r , O V B V V     m n b f d h b b n m     V V V B B V V V V V V N B V V O , , , r r r , r r r r r r r r ",
"r r r r r r r , r r r , > > O V B B V   O n b d d g d d f f b     V V V B N V V V V B B B B V V O t r r r r r , , r r r , r r r ",
"r r r r r , r r r r , , w r O V B B V O n h b d d f f d d h b n   V V N B B V B N N V V V B V V O , r r , , , r , , r r , r r r ",
"r r , r , , , , , r r r r t O B V B V O m b b b b n b + - b n n   V V c V V V B V V V V B V V V O > r r r r r r % , r r r r r r ",
"r r r , , r r r r r r r r w O B V B V O m b M b h b b - + f n m   V V c N V V V V V B B B V V V O 0 , r r r r r , r r r r r r r ",
"r r r r r r , , , , % , r w V B B V V O n d f g h d b v f v n     V V B N B B N V V V B V V V V O 9 % , , r r r , r r r r r r r ",
"r r , , r r r r r r r r r w O V B V V O n f h d v h b m h n n   V V V B B B B B V V V V V V V O O & r r r r r r , r , r r r r r ",
"r r r r r , r r r r r , , 4 O O V V V O n m b m b n f v h m m   V V V V V V V V V V V O O O O O t t r r r r , , , r , , , r r r ",
"r r r , , , , , % , , , t t s O O O O V O O O O O O O O O O O O O O O O O O O O O O O O t r r , r r , , r r r , , , , r r r r r ",
"r r , , r r r , , r r r t , , , t F O O O @.%.&.*.*.&.X.O t , , , r u C t t r t t 4 t D , % % r r r r % , , r r % , % r r r r r ",
"r r r r r r , , r r r r r r r r , e 4 t O =.' / ^ $.*...O t , r , r r r r r r r , , , r r r r r r r r , % % r r , r r r r r r r ",
"r r r r r , , r r , r r r , , , , t 4 @ O *.&.` [ $.W O 3 r , r , , , , r r r r r r r r r r r r r , r r , , , , , r r r r r r r ",
"r r , r r r r r r r r , r r r r r t     { $.[ *.%.+.O O t r , r , , , r r r , , r r , , , r r , , , r r % , , r r r , , r r r r ",
"r r , r , , , r r r , % , , r r r r   K o.[ $.| {   X , , % , , , r r r r r r r r , % , r r , r r r r r , , , , , , r r r r r r ",
"r r , , , , , , r r , r t , < , r 0 O | &.[ %.o.  @ t r r r r r r r r r , % , , r r r r r r , , r r r r r r r r r , , r r r r r ",
"r r , r r r r r r r r u t r C @ @ * O.[ ) &.+.    t r r r r r r r r , , % , , r r r r r r r r , , r r r r r r , , , , r r r r r ",
"r r r r r r r r r r r C t t ;   O | [ *.$.O     u r r r r r r r r r r , % r r r r r r r r , % , r r r r r , , , r r r r r r r r ",
"r r , r r r r r r r r q 2 X   O %.*.%.K     @ 7 < r r r r r r , , r r , % r r , , r , r r r r r r r r , , r r , , r r r r r r r ",
"r r , , r r r r , 4 t C #   | =.=.] Q     r r r , , % , , , , r r r , , r r r r , r r , r r r r r r , , , r r r , , % r r r r r ",
"r r r r r r r r u t <     %.[ &.$.O     < , , , , r r , , r r r , , , , r r r r r r r , , , , r r r , r r r r r r r , r r r r r ",
"r r r r r , , % e t   K =.=.[ $.J   o , < r r r r r r r r r u t , r r r r r r r r r r r r r r r r r , , , r r r r r , r r r r r ",
"r r r r r r r r e      .[ [ *.&.H   D r r r r r r r , , r r , , r r r r r r r r r , , , , , r r , , , r r r , , , , r r r r r r ",
"r r , , , , , t Z   =.=.*.%.[ W G   u r r r , , , , , , r , , r , , % , r r r r , , r r r r r r r r r r , , r r r r r r r r r r ",
"r r r r r r t t >   &.[ *.&.[ W     u r r r r r r r r r r , r r r r , r r r r r , , , , r r r r r r r r r , , r r r r r r r r r ",
"r r r r r r r D   #.&.[ *.%.[  .    i r , , , , , , , r r , r r r r , r r r , , , , , , , , % , r r r r r r , r r r r r r r r r ",
"r r r , , , , %   } #.' &.[ &.*.    t r , r r r r r r r r r r r r r r r r r r r r r r r r , , r r r r r r r , , , r r r r r r r ",
"r r r r r r t      .W _ +.| X. .$ t t t t t t t t t t t t t t t r r r r r r r r r r Z t t t t t r r r r r r r r , , , r r r r r "
};
