/* XPM */
static char *_4f67d099a7940a09b0a03c98da1b92e[] = {
/* columns rows colors chars-per-pixel */
"64 64 69 1 ",
"  c black",
". c #000500",
"X c #010B01",
"o c #020E01",
"O c #090909",
"+ c #0A0E0A",
"@ c #0C0C0C",
"# c #031702",
"$ c #041A03",
"% c #051E03",
"& c #0B170B",
"* c #0B160E",
"= c #0C150C",
"- c #0D1B0C",
"; c #052003",
": c #052105",
"> c #0A2707",
", c #092A06",
"< c #092E07",
"1 c #0A2009",
"2 c #082B09",
"3 c #082D0C",
"4 c #0E2C0C",
"5 c #093509",
"6 c #02390A",
"7 c #093B0B",
"8 c #0F3A0B",
"9 c #093C08",
"0 c #0F3A0C",
"q c #0F3D0C",
"w c #1C3C0C",
"e c #043317",
"r c #342D2D",
"t c #373130",
"y c #3D3434",
"u c #373A31",
"i c #08400D",
"p c #0F410D",
"a c #0E460F",
"s c #054911",
"d c #0E4A10",
"f c #0E4D11",
"g c #0E5112",
"h c #5D480F",
"j c #644B13",
"k c #63571A",
"l c #98731A",
"z c #9A741A",
"x c #BE9223",
"c c #AAAA2B",
"v c #C28E14",
"b c #CE9717",
"n c #D29617",
"m c #D39B18",
"M c #CD9B23",
"N c #D09F25",
"B c #D4A126",
"V c #DBA727",
"C c #DCAC28",
"Z c #E0A926",
"A c #E3AC28",
"S c #E7AF28",
"D c #E6B329",
"F c #E9B329",
"G c #EDB329",
"H c #EEB429",
"J c #7F1082",
"K c #E612CD",
"L c white",
/* pixels */
"8888888888888888888888888888888888888888880000088888888888888888",
"88888888888888888888888888888888888888888800  o%a808888888888888",
"8888888888888888888888,,888,,20aa008800a0004tuy   e0q88888888888",
"8,,,,,,888888,,,,,888,,%%;,,06++OOOOO&@@@@@@@@@yry 8<,8888888888",
"88888888,:,22,,,,,,,,8880@@@@@@JJJJJJJJJJJJJJJ@@@@@=-,2088888888",
"8888q88,,@@@@@@@@@@@@@@@@@JJJJJJJJJJJJJJJJJJJJJJJJJJ@@@8,8,88888",
"88888%%@@@JJJJJJJJJJJJJJJJJJJJJJJJJJJJJJJJJJJJJJJJJJJJ@8,,,,8888",
"888,,%@@JJJJJJJJJJJJJJJJJJJJJJJJJJJJJ@@@@@JJJJJJJJJJJJ@@88888888",
"8888,,@JJJJJJJJ@@@@@@@@JJJJJJJJJJJJ@@@@@@JJJJJJJJJJJJJJ@,,88,888",
"8888,,@JJJJJJJ@@@@@@@@@@@JJJJJJJJJ@@@@@@@JJJJJJJJJJJJJJ@88888888",
"888,,8@JJJJJJJJJJJ@@@@@@@@JJJJJJ@@@@@@@JJJ@@@@JJJJJJJJ@@88888888",
"888,88@J@@@@@@@@JJJJJJJ@@@JJJJJ@@@@@@@JJ@@@LL@@JJJJJJJ@,,88,8888",
"888,,,@J@LLLLLL@@@@JJJJJJ@@JJ@@@@@@JJJ@@@LLLLL@JJJJJJJ@,,88,8888",
"888,,8@@@LLLLL@@@@@@@JJJJJJJJ@JJJJJJ@@@LLLLLLL@JJJJJJJ@,88888888",
"88,,8@@@LLLLL@@K@@@@@@@JJJJJJJJJJJJ@@KK@@@@@LL@JJJJJJJ@888,88888",
"88,88@@@LLLL@@KKKKK@@@@@@@@JJJJJJ@@@KKKKKKK@@L@JJJJJJJ@888,,8888",
"88,88@@@@LL@@KKKKKKKK@@@L@@@JJJJ@@@@KKKKKKKK@L@JJJJJJJ@,,,8,,888",
"88,8,@JJ@@L@KKKKKKKKKK@@LL@@JJJ@@LL@@KKKKKK@@@@JJJJJJJ@88888,888",
"88888@JJJ@@@@KKKKKKKKK@LLL@JJJJ@LLLL@@KKKKK@@@JJJJJJJJ@8888,8888",
"888%,@JJJJ@@@@@KKKKKK@@LLL@JJJJ@LLLLL@@KKKK@@@JJJJJJJJ@@888,8888",
"q80,8@JJJJJJ@@@@@@@@@@LL@@@JJJJ@LLLLLL@@@@@@@JJJJJJJJJJ@888,8888",
"888%i@JJJJJJJJ@@@@@@@@@@@@@JJJJ@LLLLLLLL@@@@JJJJJJJJJJJ@8,8,8888",
"8888p@JJJJJJJJJJJJJ@@@@JJJ@@JJJ@@LLLLLL@@@JJJJJJJJJJJJJ@888,8888",
"8,880@JJJJJJJJJJJJJJJJJJJJJJJJ@@@@@@@@@JJJJJJJJJJJJJJJJ@,,8,8888",
"8,8,0@JJJJJJJJJJJJJJJJJJJJJJJJJJJJJJJJJJJJJJJJJJJJJJJJJ@@8888888",
"88880@JJJJJJJJJJJJJJJJJJJJJJJJJ@JJJJJJJJJJJJJJJJJJJJJJJJ@8,,,888",
"88880@JJJJJJJJJJJJJJJJJJJJJJ@JJ@JJJJJJJJJJJJJJJJJJJJJJJJ@,88,888",
"88888@JJJJJJJJJJJJJJJJJJJJJJ@@J@JJJJJJJJJJJJJJJJJJJJJJJJ@,88,888",
"8888,@JJJJJ@@JJJJJJJJJJJJJJJJ@J@JJJJJJJJJJJJJJJJJJJJJJJJ@888,888",
"88888@JJJJJ@@@@@@JJJJJJJJJJJJ@J@@JJJJJJJJJJJJJJJJJJJJJJJ@88,,888",
"88%,,@JJJJJ@LLLL@@@JJJJJJJJJ@@J@@JJJJJJJJJJ@JJJJJJJJJJJJ@8,%8888",
"88,88@JJJJJ@@@LL@L@@@@JJJJJJJJJJJJJJJJJJJJ@@JJJJJJJJJJJJ@5,,8888",
"88,88@JJJJJ@@L@L@LLLL@@@@@JJJJJJJJJJJJJJJ@@@@JJJJJJJJJJJJ@088888",
"88,8,@JJJJJ@@@L@@LL@LLLLL@@@@@JJJJJJJJJ@@@LL@@JJJJJJJJJJJ@888888",
"88,,;@JJJJJ@@@L@L@@@LL@LLL@LLL@@@@@@@@@@LLLLL@@JJJJJJJJJJ@888888",
"88888@JJJJJ@L@L@LLLLLL@@L@@LLLLLLLLL@LL@LLLLLL@@JJJJJJJJJ@q,8888",
"88,88@JJJJJ@L@L@LL@LLLL@L@LLL@LLLLLL@LL@LLL@LLL@@JJJJJJJJ@q88888",
"8888,@JJJJJ@@@L@LL@LL@@LL@LL@@LLLL@L@LL@LL@@L@LL@JJJJJJJJ@088888",
"88880@JJJJJ@@L@@L@@LLLLL@@LL@LL@@LL@LL@@L@LLL@LL@JJJJJJJJ@08,888",
"8880@@JJJJJ@LL@LL@LL@@LL@LLL@L@LL@L@@L@LL@LL@LL@@@JJJJJJJ@08,888",
"88,0@JJJJJJ@@L@L@@LL@L@L@LLLLL@LL@LL@L@LLLLL@L@@L@JJJJJJJ@088888",
"888,@JJJJJJJ@L@LLLLL@L@L@L@@LL@LLLLLLL@LL@@L@L@LL@JJJJJJJ@088888",
"8880@JJJJJJJ@@@LLLL@@LL@@L@LL@LLL@L@@L@LLL@LLL@LL@JJJJJJJ@088888",
"88,7@JJJJJJJJJ@@LLLL@LL@LLLLL@L@@@L@LL@LLLLL@LLLL@JJJJJJJ@,88888",
"888a@JJJJJJJJJJ@@@LLLLL@LLLLL@LLLL@@LL@LL@LLLLLL@@JJJJJJJ@,,,888",
"888,@JJJJJJJJJJJJ@@@@LL@LLLLLLLLLLLLLL@LLLLLLLL@@JJJJJJJJ@,88888",
"88,,@@JJJJJJJJJJJJJJ@@@@@LLLLLLLLLLLL@@LLLL@@@@@JJJJJJJJJ@%88888",
"88880@JJJJJJJJJJJJJJJJJJ@@@@@@@@@@@@L@@@@@@@JJJJJJJJJJJJJ@888888",
"88888@JJJJJJJJJJJJJJJJJJJJJJJJJJJJJ@@@@JJJJJJJJJJJJJJJJJJ@888888",
"88,88@@JJJJJJJJJJJJJJJJJJJJJJJJJJJJJJJJJJJJJJJJJJJJJJJJJ@f,,8888",
"88,8,3@@@JJJJJJJJJJJJJJJJJJJJJJJJJJJJJJJJJJJJJJJJJJJJJJ@@<888888",
"88,,,,,2@@@JJJJJJJJJJJJJJJJJJJJJJJJJJJJJJJJJJJJJJJJJ@@@@0,,88888",
"88,88888q0@@@@@JJJJJJJJJJJJJJJJJJJJJJJJJJJJJJJJJ@@@@@08,,,,88888",
"88888888888p00s@@@@@@@@@@@@@@JJJJJJJJJJJJJJ@@@@@@d888,,,88888888",
"88,8888888851X.*CGDl  #3900f@@@@@@@@@@@@@@@@gggg088,,88,,8888888",
"88,,8888,20p# NHHnc  888,,%,,,,8802,8888,88,888888,,,888,,%88888",
"88888888q0<  DmFS@  <,,,,88,,888,,,,8888888,,,,888,8888888,88888",
"88888,,%70 zHHmSk o,<888888888q0,88888888888888888,,,88888,88888",
"888888887  BmmGFj f8888888,,88,,888888888,,,,,88,,,888,,,,888888",
"88,,,,,0a HHGDmxh q888,,,,,,8,,8,,%,8888,,8888888888,,8888888888",
"88888800> FmGFmx  q8888888888,8888,88888,,,,888888888,,888888888",
"8888888f AFmGDmB  w8,,,,,,,88,8888,888,,,,,,,,%,888888,888888888",
"888,,,,% MAbFmFG  08,888888888888888888888888,,8888888,,,8888888",
"8888880  BxvZNVB$0000000000000008888888888a0000088888888,,,88888"
};
