/* XPM */
static char * floor_xpm[] = {
"128 128 2 1",
" 	c #103509",
".	c #16500A",
"                                                                                                                                ",
"                                                                                                                                ",
"                                                                                                                                ",
"                                                                                                                                ",
"                                                                                             ...                                ",
"                                                                                             ...                                ",
"                        ....                                                                 ....                               ",
"                      ......             ...                 .....                           .....                              ",
"                      ......            ....             .........                         ........                             ",
"           ...        .....             ....             .........                         .........               ...          ",
"          ....        ...    ....       ...              ........   ...                    ... .....               ...          ",
"         .....               ....       ...                  ....   ....          ...      .... ....               ...          ",
"        ......               ....       ....               ......   ......        ....     .....                   ...          ",
"        ....        ....     ....       ....              .......   ........      ....     ......           ....   ...          ",
"        ....        ....     ....       ....          ..........     ..........   ....      .....         ......   ...          ",
"        ....        ....     .....       ...         .........         .........             ....         ......                ",
"        ....                  .....     ....         .....               .......                          .....                 ",
"                               .....    ....         ....                    ...                                                ",
"                               ......  .....    ...  ...                                                                        ",
"                    .....       .....  ....    ....  ...                                  .....      ...                        ",
"                    .....        ..........   .....  ...                         ...      .....      ....                       ",
"                    .....         ........   ......                              ...      .....      ....  ....       ...       ",
"                                   .......   .....        .....                  ...                 ....  ....       ....      ",
"                                    .....   .....         ......                 ...                  ...  ....       ....      ",
"                                     ....   ....          .......    ...         ...                  ...   ...       ....      ",
"      .....                          ...   .....            ............        ....                 ....  ....        ...      ",
"      ........          ...                ....              ...........        ....                .....  ....        ...      ",
"      ........        .....                ....               ..........        ...     ....       .....   ....        ...      ",
"         .....    .........                ...                                  ...    .....       .....  ....         ...      ",
"                  .........                ...                                   ....  .....      .....  .....         ...      ",
"                  .......                  ...                                   ..........       ............        ....      ",
"                                           ...                                   .........        ...........         ....      ",
"                                 ....      ...      ...                           ........         .........          ....      ",
"                                 .....     ...     ....                            .......                                      ",
"                                 .....     ...     ....        ...                  .....                                       ",
"                                  ....     ...     ....      .....      ...         ....                                        ",
"                                                   ....     ......      ....        ....                                        ",
"                                                   ....   ........      ....        ...           ...                           ",
"                                            ...    ....  .......        ....        ...           ...                           ",
"                    .......                 ...    ... .......           ...                      ....                          ",
"          .................                 ...    ..........            ...                      ....      .......             ",
"          .................                 ...    ........          ....                         ..................            ",
"          .............                            .......          .....            ....          ..................           ",
"     ....                                          ...              .....            .......       ...........   ....           ",
"     ....                                                           ....             ...........   ...           ....           ",
"     ....        ...             ...                                ...                .........                  ...           ",
"     ...         ...             ...                                                     .......                  ...           ",
"                 ...            ....                                  ...                    ...                  ...           ",
"                 ...            ....                                  ...     .....     ....                      ...           ",
"                 ...           .....          ...                     ...     .....     ....                      ... ...       ",
"                 ...         ......         .....                     ...     .....     ....                   ..........       ",
"                            ......        .......      ...            ...     ...        ...                   ..........       ",
"                            ......      ........       ...    ....   ....                                      .........        ",
"                           .....      .........        ...  ......   ....                                        .....          ",
"                           ....      .......           ...  ......   ...                                                        ",
"                           ...      ......             ... ......    ....                               ....                    ",
"                                    .....              ... ....      ....                             ......                    ",
"                                    ...                    ....       ...                          .........                    ",
"        ...                                    ......      ...        ...                       ...........                     ",
"        ...                                    ......      ...        ...        ....           .........                       ",
"        ...                        ...         ......      ...                   .....          ......                          ",
"        ...                       ....                     ....                  .....                                          ",
"        ...    ...              ......                     ....                   ....              ...                         ",
"              ....              ......                      ....                   ...              .....    .......            ",
"              ....              .....    .......            ....                   ...              ................            ",
"              ...               ...      ........           ....                                    ..................          ",
"              ....                       ........            ...                           ...         .........   ...          ",
"              ....                           ....                             ...         ....                    ....          ",
"              .....          ....             ...                            ....         ....                ........          ",
"               .....         ....                  ....              ...    .....         ....                ........          ",
"               .....         ....                  .....            ....   ......         ...    ...          .......  ...      ",
"                ....                           ..........          .....  ......          ...   ....                   ....     ",
"                 ...                          ..... ......         ............           ...   ....                   ....     ",
"                                             ......  ......        ...  ......            ...  .....                    ...     ",
"               ...                          ........  .........         ......           ....  ....      ......         ...     ",
"             .....                         .........   ........           ....           ....  ....      .........      ...     ",
"          ........             ...         ..... ...    .......         ......           ....            ............   ...     ",
"         .........             ...         ....  ...     .....         .......           ...                .........   ...     ",
"         .......        ...... ... .........                          ......             ...                   ......   ...     ",
"         ...          ............ ..........                        .....            ......                           ....     ",
"                     ............. ..........                        .....            ...                              ....     ",
"                    .......   ....       ....                 ...    ....             ...                  ...         ...      ",
"                    .....                                     ...    ....             ...                  ...                  ",
"                    ...                                       ...    ....             ...                 ....                  ",
"                                                              ...    ....             ...                 ....                  ",
"                                                                      .........       ...     ...         ....                  ",
"                                                 ....                 .........               ...         ...                   ",
"          ...        ........              ..........                 .........               ....             ....             ",
"          ....       ...........           ..........                                         .....           .....             ",
"          ....       ...........           .........                ......         ...        ......        .......             ",
"          ......          ......            .....                   ..................         .....       .......              ",
"           .....                                     ....           ...................         ....       ......               ",
"           .....                                     .....             ................                    ....    ...          ",
"                                                     ......                        .....                           ...          ",
"                                                      .....                         ....                           ...          ",
"                                                       .....                        ....                    ...    ...          ",
"           ...                                 ...      .....                   ........                    ....   ...          ",
"           ......                             ....       .....           ...............                    ....   ...          ",
"           ......                            .....       .....           ...............                     ...   ...          ",
"           ......                            .....        .....   ...    ................                                       ",
"           ......           ...             .....          ....   ...               .....        ....                           ",
"           ..........       ...          .......           ....   ...                ....        ....                           ",
"           ..........       ...          .......            ...   ...                 ...        ......                         ",
"              .......       ...          ......                   ....                            ......                        ",
"                                                         ....     ....                             .....                        ",
"                  ...                                   .....     .....                             ....                        ",
"                  ....             ....               .......      .....                                                        ",
"                  ....            .....               .......      ......                                                       ",
"                  ....            .....               .......       ......                    ...                               ",
"                   ...            ....                 ......        ......     ....          ....  ......                      ",
"                                                      ......          .....    .....          ............                      ",
"                                  ....          ...   .....            ....   ......          ............                      ",
"                 ...            ......         ....   ....                    .....            ........           ...           ",
"                 .....       .........       ......   ...                     ....                                ....          ",
"                 ......   ...........   .... ......   ...                                                         ......        ",
"                 ......   .........     .........                                                                 ......        ",
"                   .............        .........                         ........                                 .....        ",
"     .......        ......                .............                   ........                         ....                 ",
"     .......         .....                  ...........                   ........                        .....                 ",
"     .......                                   ........                        ...                       ......                 ",
"                  .... .....                     .....                                                   .....                  ",
"                  ..........                                          ....                               ....                   ",
"                  ..........                                         .....                     .....                            ",
"                   .......                                         .......                  ........                            ",
"                                                                  .......                   ........                            ",
"                                                                  ......                    ......                              ",
"                                                                  ....                                                          ",
"                                                                                                                                "};
