/* XPM */
static char *bdbca9b20bf74122e4e68f355a93e2c7ghSXCgT02NjzX4cR[] = {
/* columns rows colors chars-per-pixel */
"128 128 28 1 ",
"  c None",
". c #FFFC16",
"X c #FFFD5E",
"o c #FFFD68",
"O c #FFFD6E",
"+ c #FFFD6F",
"@ c #FFFD74",
"# c #FFFD7C",
"$ c #FFFD81",
"% c #FFFD82",
"& c #FFFD83",
"* c #FFFD84",
"= c #FFFD85",
"- c #FFFD87",
"; c #FFFD88",
": c #FFFD89",
"> c #FFFD8B",
", c #FFFD8C",
"< c #FFFE8F",
"1 c #FFFE92",
"2 c #FFFEB3",
"3 c gray85",
"4 c #FFFEC2",
"5 c #E6E6E6",
"6 c #ECECEC",
"7 c #FFFFE1",
"8 c #FFFFEC",
"9 c #FFFFFA",
/* pixels */
"                                                                                                                                ",
"                                                                                                                                ",
"                                                                                                                                ",
"                                                                                                                                ",
"                                                                                                                                ",
"                                                                                                                                ",
"                                                                                                                                ",
"                                                                                                                                ",
"                                                                                                                                ",
"                                                                                                                                ",
"                                                                                                                                ",
"                                                                                                                                ",
"                                                                                                                                ",
"                                                                                                                                ",
"                                                                                                                                ",
"                                                                                                                                ",
"                                                                                                                                ",
"                                                                                                                                ",
"                                                                                                                                ",
"                                                                                                                                ",
"                                                                                                                                ",
"                                                                                                                                ",
"                                                                                                                                ",
"                                                                                                                                ",
"                                                                                                                                ",
"                                                                                                                                ",
"                                                                                                                                ",
"                                                                                                                                ",
"                                                                               9..........49                                    ",
"                                                                             ....*,*$$$*.....8                                  ",
"                                                                           ...#>.$$$$$$$$$$,...                                 ",
"                                                                          ..O>$$..$$$$$$$$$$$,...                               ",
"                                                                          .$$$$$$.$$$$$$$$$$$$$$..                              ",
"                                                                         ..$$$$$$.$$$$$$$$$$$$$$*..                             ",
"                                                                        ....$$$$$..$$$$$$$$$$$$$$@.                             ",
"                                                                       7.>$.$$$$$$.$$$$$$$$$$$$$$>..                            ",
"                                                                       1.$$..$$$$$..$$$$$$$$$$$$$$$.                            ",
"                                                                      8..$$$.$$$$$$.$$$$$$$$$$$$$$*..                           ",
"                                                                      2.$$$$.$$$$$$..$$$$$$$$$$$$$$@.                           ",
"                                                                      $.$$$$..$$$$$$.$$$$$$$$$$$$$#>.                           ",
"                                                                      ..$$$$$.$$$$$$..$$$$$$$$$$$$$,.                           ",
"                                                                      .$$$$$$..$$$$$$..$$$$$$$$$$$$$.                           ",
"                                                                      .$$$$$$$.$$$$$$$.$$$$$$$$$$$$$.                           ",
"                                                                      .$$$$$$$..$$$$$$..$$$$$$$$$$$$.                           ",
"                                                                      .$$$$$$$$.$$$$$$$..$$$$$$$$$$$.                           ",
"                                                                      .,$$$$$$$$.$$$$$$$..$$$$$$$$$>.                           ",
"                                                                      ..$$$$$$$$..$$$$$$$..$$$$$$$$>.                           ",
"                                                                      2.$$$$$$$$$..$$$$$$$...$$$$$$..                           ",
"                                                                      8.>#$$$$$$$$..$$$$$$$$..$$$$>.8                           ",
"                                                                       .$$$$$$$$$$$..$$$$$$$$..$$#..                            ",
"                                                                       ..>$$$$$$$$$$..$$$$$$$$...>X7                            ",
"                                                                        ..$$$$$$$$$$$..$$$$$$$$$...                             ",
"                                                                        5..$$$$$$$$$$$..$$$$$$$$*..                             ",
"                                                                       556..$$$$$$$$$$$...$$$$$*$.                              ",
"                                                                      55666...$$$$$$$$$$$...$,O*..                              ",
"                                                                     5566655...,$$$$$$$$$$$..o...                               ",
"                                                                    5566655  8.....*$$$*,*.....                                 ",
"                                                                   5566655     941.........9                                    ",
"                                                                  5566655                                                       ",
"                                                                 5566655                                                        ",
"                                                                5566655                                                         ",
"                                                               5566655                                                          ",
"                                                              5566655                                                           ",
"                                                             5566655                                                            ",
"                                                            5566655                                                             ",
"                                                           5566655                                                              ",
"                                                          5566655                                                               ",
"                                                         5566655                                                                ",
"                                                        5566655                                                                 ",
"                                                       5566655                                                                  ",
"                                                      5566655                                                                   ",
"                                                     5566655                                                                    ",
"                                                    5566655                                                                     ",
"                                                   5566655                                                                      ",
"                                                  5566655                                                                       ",
"                                                 5566655                                                                        ",
"                                                5566655                                                                         ",
"                                               5566655                                                                          ",
"                                              5566655                                                                           ",
"                                             5566655                                                                            ",
"                                            5566655                                                                             ",
"                                           5566655                                                                              ",
"                                          5566655                                                                               ",
"                                         5566655                                                                                ",
"                                        5566655                                                                                 ",
"                                       5566655                                                                                  ",
"                                      3566655                                                                                   ",
"                                       55555                                                                                    ",
"                                         33                                                                                     ",
"                                                                                                                                ",
"                                                                                                                                ",
"                                                                                                                                ",
"                                                                                                                                ",
"                                                                                                                                ",
"                                                                                                                                ",
"                                                                                                                                ",
"                                                                                                                                ",
"                                                                                                                                ",
"                                                                                                                                ",
"                                                                                                                                ",
"                                                                                                                                ",
"                                                                                                                                ",
"                                                                                                                                ",
"                                                                                                                                ",
"                                                                                                                                ",
"                                                                                                                                ",
"                                                                                                                                ",
"                                                                                                                                ",
"                                                                                                                                ",
"                                                                                                                                ",
"                                                                                                                                ",
"                                                                                                                                ",
"                                                                                                                                ",
"                                                                                                                                ",
"                                                                                                                                ",
"                                                                                                                                ",
"                                                                                                                                ",
"                                                                                                                                ",
"                                                                                                                                ",
"                                                                                                                                ",
"                                                                                                                                ",
"                                                                                                                                ",
"                                                                                                                                ",
"                                                                                                                                ",
"                                                                                                                                ",
"                                                                                                                                ",
"                                                                                                                                ",
"                                                                                                                                "
};
