/* XPM */
static char * objet_xpm[] = {
"128 128 29 1",
" 	c #103509",
".	c #16500A",
"+	c #FFFFFA",
"@	c #FFFC16",
"#	c #FFFEC2",
"$	c #FFFD84",
"%	c #FFFD8C",
"&	c #FFFD85",
"*	c #FFFD81",
"=	c #FFFFEC",
"-	c #FFFD7C",
";	c #FFFD8B",
">	c #FFFD6E",
",	c #FFFD82",
"'	c #FFFD74",
")	c #FFFFE1",
"!	c #FFFD89",
"~	c #FFFE92",
"{	c #FFFD88",
"]	c #FFFEB3",
"^	c #FFFD6F",
"/	c #FFFD5E",
"(	c #E6E6E6",
"_	c #ECECEC",
":	c #FFFD83",
"<	c #FFFD87",
"[	c #FFFD68",
"}	c #FFFE8F",
"|	c #D9D9D9",
"                                                                                                                                ",
"                                                                                                                                ",
"                                                                                                                                ",
"                                                                                                                                ",
"                                                                                             ...                                ",
"                                                                                             ...                                ",
"                        ....                                                                 ....                               ",
"                      ......             ...                 .....                           .....                              ",
"                      ......            ....             .........                         ........                             ",
"           ...        .....             ....             .........                         .........               ...          ",
"          ....        ...    ....       ...              ........   ...                    ... .....               ...          ",
"         .....               ....       ...                  ....   ....          ...      .... ....               ...          ",
"        ......               ....       ....               ......   ......        ....     .....                   ...          ",
"        ....        ....     ....       ....              .......   ........      ....     ......           ....   ...          ",
"        ....        ....     ....       ....          ..........     ..........   ....      .....         ......   ...          ",
"        ....        ....     .....       ...         .........         .........             ....         ......                ",
"        ....                  .....     ....         .....               .......                          .....                 ",
"                               .....    ....         ....                    ...                                                ",
"                               ......  .....    ...  ...                                                                        ",
"                    .....       .....  ....    ....  ...                                  .....      ...                        ",
"                    .....        ..........   .....  ...                         ...      .....      ....                       ",
"                    .....         ........   ......                              ...      .....      ....  ....       ...       ",
"                                   .......   .....        .....                  ...                 ....  ....       ....      ",
"                                    .....   .....         ......                 ...                  ...  ....       ....      ",
"                                     ....   ....          .......    ...         ...                  ...   ...       ....      ",
"      .....                          ...   .....            ............        ....                 ....  ....        ...      ",
"      ........          ...                ....              ...........        ....                .....  ....        ...      ",
"      ........        .....                ....               ..........        ...     ....       .....   ....        ...      ",
"         .....    .........                ...                                 +@@@@@@@@@@#+       .....  ....         ...      ",
"                  .........                ...                               @@@@$%&***&@@@@@=    .....  .....         ...      ",
"                  .......                  ...                             @@@-;@**********;@@@   ............        ....      ",
"                                           ...                            @@>;**@@***********;@@@ ...........         ....      ",
"                                 ....      ...      ...                   @,*****@*************,@@ .........          ....      ",
"                                 .....     ...     ....                  @@******@**************$@@                             ",
"                                 .....     ...     ....        ...      @@@@*****@@**************'@                             ",
"                                  ....     ...     ....      .....     )@!*@******@**************!@@                            ",
"                                                   ....     ......     ~@**@@*****@@**************,@                            ",
"                                                   ....   ........    =@@***@******@**************{@@                           ",
"                                            ...    ....  .......      ]@****@******@@**************^@                           ",
"                    .......                 ...    ... .......        *@****@@******@**************{@.                          ",
"          .................                 ...    ..........         @@*****@******@@*************;@.      .......             ",
"          .................                 ...    ........          .@******@@******@@*************@...............            ",
"          .............                            .......          ..@*******@*******@*************@................           ",
"     ....                                          ...              ..@*******@@******@@************@.........   ....           ",
"     ....                                                           ..@********@*******@@***********@.           ....           ",
"     ....        ...             ...                                ..@;********@*******@@*********;@             ...           ",
"     ...         ...             ...                                  @@********@@*******@@********{@             ...           ",
"                 ...            ....                                  ]@*********@@*******@@@******@@             ...           ",
"                 ...            ....                                  =@{*********@@********@@****{@=             ...           ",
"                 ...           .....          ...                     .@,**********@@********@@***@@              ... ...       ",
"                 ...         ......         .....                     .@@!**********@@********@@@!/)           ..........       ",
"                            ......        .......      ...            ..@@***********@@*********@@@            ..........       ",
"                            ......      ........       ...    ....   ...(@@***********@@********$@@            .........        ",
"                           .....      .........        ...  ......   ..((_@@***********@@@*****,:@               .....          ",
"                           ....      .......           ...  ......   .((___@@@***********@@@*;><@@                              ",
"                           ...      ......             ... ......    ((___((@@@;***********@@[@@@       ....                    ",
"                                    .....              ... ....     ((___((  =@@@@@&***&%$@@@@@       ......                    ",
"                                    ...                    ....    ((___((     +#}@@@@@@@@@+       .........                    ",
"        ...                                    ......      ...    ((___((                       ...........                     ",
"        ...                                    ......      ...   ((___((.        ....           .........                       ",
"        ...                        ...         ......      ...  ((___((          .....          ......                          ",
"        ...                       ....                     ....((___((           .....                                          ",
"        ...    ...              ......                     ...((___((             ....              ...                         ",
"              ....              ......                      .((___((               ...              .....    .......            ",
"              ....              .....    .......            ((___((                ...              ................            ",
"              ...               ...      ........          ((___((                                  ..................          ",
"              ....                       ........         ((___((                          ...         .........   ...          ",
"              ....                           ....        ((___((              ...         ....                    ....          ",
"              .....          ....             ...       ((___((              ....         ....                ........          ",
"               .....         ....                  ....((___((       ...    .....         ....                ........          ",
"               .....         ....                  ...((___((       ....   ......         ...    ...          .......  ...      ",
"                ....                           ......((___((       .....  ......          ...   ....                   ....     ",
"                 ...                          ..... ((___((        ............           ...   ....                   ....     ",
"                                             ......((___((.        ...  ......            ...  .....                    ...     ",
"               ...                          ......((___((......         ......           ....  ....      ......         ...     ",
"             .....                         ......((___((.......           ....           ....  ....      .........      ...     ",
"          ........             ...         .....((___(( .......         ......           ....            ............   ...     ",
"         .........             ...         ....((___((   .....         .......           ...                .........   ...     ",
"         .......        ...... ... .........  ((___((                 ......             ...                   ......   ...     ",
"         ...          ............ ..........((___((                 .....            ......                           ....     ",
"                     ............. .........((___((                  .....            ...                              ....     ",
"                    .......   ....       ..((___((            ...    ....             ...                  ...         ...      ",
"                    .....                 ((___((             ...    ....             ...                  ...                  ",
"                    ...                  ((___((              ...    ....             ...                 ....                  ",
"                                        ((___((               ...    ....             ...                 ....                  ",
"                                       ((___((                        .........       ...     ...         ....                  ",
"                                      |(___((    ....                 .........               ...         ...                   ",
"          ...        ........          (((((.........                 .........               ....             ....             ",
"          ....       ...........         ||..........                                         .....           .....             ",
"          ....       ...........           .........                ......         ...        ......        .......             ",
"          ......          ......            .....                   ..................         .....       .......              ",
"           .....                                     ....           ...................         ....       ......               ",
"           .....                                     .....             ................                    ....    ...          ",
"                                                     ......                        .....                           ...          ",
"                                                      .....                         ....                           ...          ",
"                                                       .....                        ....                    ...    ...          ",
"           ...                                 ...      .....                   ........                    ....   ...          ",
"           ......                             ....       .....           ...............                    ....   ...          ",
"           ......                            .....       .....           ...............                     ...   ...          ",
"           ......                            .....        .....   ...    ................                                       ",
"           ......           ...             .....          ....   ...               .....        ....                           ",
"           ..........       ...          .......           ....   ...                ....        ....                           ",
"           ..........       ...          .......            ...   ...                 ...        ......                         ",
"              .......       ...          ......                   ....                            ......                        ",
"                                                         ....     ....                             .....                        ",
"                  ...                                   .....     .....                             ....                        ",
"                  ....             ....               .......      .....                                                        ",
"                  ....            .....               .......      ......                                                       ",
"                  ....            .....               .......       ......                    ...                               ",
"                   ...            ....                 ......        ......     ....          ....  ......                      ",
"                                                      ......          .....    .....          ............                      ",
"                                  ....          ...   .....            ....   ......          ............                      ",
"                 ...            ......         ....   ....                    .....            ........           ...           ",
"                 .....       .........       ......   ...                     ....                                ....          ",
"                 ......   ...........   .... ......   ...                                                         ......        ",
"                 ......   .........     .........                                                                 ......        ",
"                   .............        .........                         ........                                 .....        ",
"     .......        ......                .............                   ........                         ....                 ",
"     .......         .....                  ...........                   ........                        .....                 ",
"     .......                                   ........                        ...                       ......                 ",
"                  .... .....                     .....                                                   .....                  ",
"                  ..........                                          ....                               ....                   ",
"                  ..........                                         .....                     .....                            ",
"                   .......                                         .......                  ........                            ",
"                                                                  .......                   ........                            ",
"                                                                  ......                    ......                              ",
"                                                                  ....                                                          ",
"                                                                                                                                "};
