/* XPM */
static char *c60279fba5714a01856dae98da848fb4[] = {
/* columns rows colors chars-per-pixel */
"64 64 50 1 ",
"  c black",
". c #0B0F0B",
"X c #0C0C0C",
"o c #051E03",
"O c #0B150B",
"+ c #0C110C",
"@ c #0D1B0C",
"# c #092A06",
"$ c #092B08",
"% c #082C0B",
"& c #0F3A0B",
"* c #0F3D0B",
"= c #0E3A0C",
"- c #0F3D0C",
"; c #103A0C",
": c #26370F",
"> c #56040B",
", c #62050D",
"< c #790911",
"1 c #7D1A1B",
"2 c #0F410D",
"3 c #0E4910",
"4 c #0E5112",
"5 c #214A0E",
"6 c #2D5A05",
"7 c #2F5E05",
"8 c #316205",
"9 c #316407",
"0 c #356A05",
"q c #326709",
"w c #336B0A",
"e c #336C08",
"r c #397306",
"t c #3B7706",
"y c #3C7A06",
"u c #397308",
"i c #38780F",
"p c #327A12",
"a c #337D13",
"s c #8F131A",
"d c #88151B",
"f c #93131A",
"g c #9B1119",
"h c #9D1119",
"j c #A01018",
"k c #408206",
"l c #448A07",
"z c #438A0B",
"x c #489107",
"c c #4A9607",
/* pixels */
"&&&&&&&&&&&&&&&&&&         &&&&XXXXXXXXXXXXXXXXX&&&&=&&&&&&&&&&&",
"&&&&&&&&&&&&&&&&&  t9tcct0yXX XXXXlttttyxltrttuXXXXXX&&&&&&&&&&&",
"&&&&&&&&&&&&&& XXX7779977770cyyaX897779987770009e9iXX&&&&&&&&&&&",
"&######&&&&&XX t88cttcccct997ccct7k780000cc7888887uXX#&&&&&&&&&&",
"&&&&&&&&#o#XXtt78XXXXXX5Xtcct97tcct9cd1qqpttt8r989zX&##&&&&&&&&&",
"&&&&&&&##&&X9wtXXX#### Xhjjtt969tctccjjhfXXXX +XXXXX&&&&#&#&&&&&",
"&&&&&oo#&&&XXXX 3&& +Xjjjjjjctttt9tcjjjjjXXXX&&&#####&&&####&&&&",
"&&&##o&&&##&&&&&&@XXjjjjjjjjjjt99ccjjjjjjjjjgXO##&&&#&&&&&&&&&&&",
"&&&&##&&&&#oo###XXjjjjj<<jj<jjjjcjjjjjj<jjjjjjXX#####&&&##&&#&&&",
"&&&&###&&&&&##XXXjjjj<<<j<<<<jjjjjjjjj<<jjjjjjjjXX&&&&&&&&&&&&&&",
"&&&##&&&&&&&#.Xjjjjjjjjjjjj<,<<jjjj<<<<j<<<jjjjjjXX=&&&&&&&&&&&&",
"&&&#&&&&&&&&XXjjjjj<<jj<jjj<jjjjj<j<jjj<jjjjj<jjjjXX4&&##&&#&&&&",
"&&&#####&&=XXjjjj<<,jj<<jj<<jjjj<<j<jjj<jjjj,,<jjjjXXX%##&&#&&&&",
"&&&##&&&&=XX<jj<,<<<jjjjjjjjjjjjjjjjjj<<jjj<<jjj<<jjfXX#&&&&&&&&",
"&&##&&&##;X<<jj<<jjjj<jjjj<,<jj<j<<jj<<jjjj<<j<<<jjjjsX=&&#&&&&&",
"&&#&&&&*#XX<jj<jjjjj<<j<jj<j<jjjj<jj<<jjjj<,<<<jjjjjj<XX&&##&&&&",
"&&#&&#&$+X<jj<<jjjj<<j<<j<<j<jjj<jjjjjj<j<<<j<jjjjjj<<hX##&##&&&",
"&&#&###$Xj<jj<jjjj<<j<<jjjj<<jj<<jjj,<j<j<<jjjjjjjj<<jjX=&&&#&&&",
"&&&&&&$XX<<jjjjjj<<jjjjjjjj<<jj<jjj<,jj<j,<jjjj<jjjjjjjXX=&#&&&&",
"&&&o##XXj<jj<jjj<<jjjjj<<jj<jjjjjjjj<jj<j<jjj<<<jjjjj<jjXX&#&&&&",
"&&&#&&Xjj<jj<jjj<jjjjjj<jjj<jjjjjjjj<jjjjjjj<<,jj<<jj<jjjX&#&&&&",
"&&&o#XXj<<jj,jj<<jj<jj<<jj<<j<<<j<jj<jjjj<jj<j<jjjjj<<jjjX=#&&&&",
"&&&&&Xjjjjjj<j<<jjj<jj<jjj<jj<jjj<j<<jjjj<j<<j<jjjjj<jjj<XX#&&&&",
"&#&&&Xjj<jjj<j<jj<<jj<<jjjjjj<<jjjj<jjjjj<j<jjj<jjjj<j<<<jX%&&&&",
"&#&#=Xjj<jj<<j<jj<jj<<jjjjjjj<jjjjj<jjjj<<j<jjj<jj<jjj<jjjXX&&&&",
"&&&&XXj<,j<<j<<jjjjj<jjjj<<jj<jjjj<<jjjjjjjjjjj<j<<jjjjjjjjX#&&&",
"&&&&Xjj<jjjjj<jjjjjj<jjjj<jj<<jjjj<j<<jjjjjj<<<<j<jj<,<jjjjX#&&&",
"&&&&Xjj<jjjjjjjjj<<<<jjj<<jj<jjjj<<j<jjj<<jj<<jjj<jj<j<jjjjX#&&&",
"&&&&Xjj<jjj<jjjjj<jjjjjj<jjj<jjj<<jjjjjj<jjj<<jjjjj<<j<j<jjX#&&&",
"&&&&Xj<j<j<<jjjj<<<jjjj<<jjjjjjjjjj<jjjj<jjj<jjjjjjjjj<j<jjX#&&&",
"&&o#X<<j<j<jj<jj<j<jjjjjjj<<j<jjjj<<jjj<jjj<<jj<jj<jjjjj<jjX&&&&",
"&&#&X<j<<jjj<<jj<jjjjj<jjj<jj<jjj<<jjjjjjjjjjj<jj<<<jjj<<jjX&&&&",
"&&#&X<j<jjjj<jj<<j<<jj<jj<<jjjj<j<jjj<jjjjj<jj<jj<<<jjj<jjjX&&&&",
"&&#&Xj<<jjj<<jjj<j<jjjjj<<jjjjj<jjjj<<jjjj<<j<<jjj<jj<jjjjjX&&&&",
"&&##Xj<<jjj<jjj<<<<jjjjj<<jjjjj<jjjj<jjj<jjjj<jj<jj<<<jj<jjX&&&&",
"&&&&Xj<<jj<<jjj<j<jjj<jj<jj<jj<<jjjjjjjj<j<jjjjj<jjjj<jj<jjX&&&&",
"&&#&Xj<jjj<jjjj<jjjj<<j<<j<<jj<jjjj<<jj<<j<jj<jj<jjjjjjj<jjX&&&&",
"&&&=Xj<jj<<jjj<<jjjj<jjjjj<jj<<jj<j<jjj<jj<j<<jj<<jjjjjjjjjX&&&&",
"&&&=Xj<jj<jjjjjjjj<<<jjjj<jjj<jj<<j<jj<<jjjj<jjj,,jj<jjjjjjX#&&&",
"&&&&Xj<jjjjj<<jjj<<<jjjjjjjjjjjj<jjjjjjjj<jj<jjj><jj<jjjjjjX#&&&",
"&&#&XXjjjjj,<jjjjj<<jjjj<jjjjjj<jjjjj<<jj<jj<jjj,jjj<jjj<jgX&&&&",
"&&&##Xjjjj<,jjjjjjjj<jj<<jjj<jjjjj<j<<jj<<jjjjjjjjjjjjj<<jXX&&&&",
"&&&&&Xjjj<<jjjj<jjj<<jj<jjjj<j<jj<<jjjjj<jj<jj<<j<j<jjjjjjX&&&&&",
"&&##&XXjj<jjjj<<jj<<jj<<jjj<<<<j<,<jjj<jjjj<jj<jj<j<jjjjjXX&&&&&",
"&&&&&#Xj<<jjjj<jj<jjjjjjjjj<j<jj<<jjjj<<jjj<j<<j<<jjjj<jjX###&&&",
"&&&###XX<jjjjj<jj<jj<<jjjjjj<,<<<jjjj,<<jj<<jjjj<jjjj<<jXX#&&&&&",
"&&##&&&X<<<jjjjjjjjj,jjjjj<j<j<,jjjj<<j<jj<jjjjj<jj<<<jjX#o&&&&&",
"&&&&&&#XX<jjjjj<<jjjjjjjj<<jjjjjjjj<<jj<jj<jj<jj,jj<jjjX+&&&&&&&",
"&&&&&##&XXjjjjj<jjjjjj<<<<jj<jjjjj<jjj<<j<<jj<jjjjj<<jXX#&&&&&&&",
"&&#&&&&&=Xjjjj<jjj<jj<<jjjj<<j<jjj,jjjjjjjjjjjjjjj<<jjX=&&##&&&&",
"&&#&###&&XXjj<<jj<<jjj<<jj<jjj<jjj<jjj<jjjj<jjjjjjjjjX+###&&&&&&",
"&&######&2Xfj<jjj<<jj<<<jj<jj<<jj<<jjj<jjj<<jjjj<<jjXX&&&##&&&&&",
"&&#&&&&&&&+XXjjjj<<jj<j<j<<jjjjjj<jjjjjjj<<jjj<<jjjXX&&####&&&&&",
"&&&&&&&&&&&-XXjj<<jj<j<jj<jjj<jjjjjj<<jjjjjjj<<jjjXX&###&&&&&&&&",
"&&#&&&&&&&&#$XXXjjjjj<<jjjjj<<j<<jjj<<j<<jjj<<jjjXX##&&##&&&&&&&",
"&&##&&&&##&&&&:XXjjjjj<<<jj<<jj<jjj<<jj<jj<<jjjjXX###&&&##o&&&&&",
"&&&&&&&&&&&&&&&&XXjjjj<jjjjjjj<<jjj<jj<<jjjjjjXXX&#&&&&&&&#&&&&&",
"&&&&&##o#&&&#&##%XXgjjjjjjjj<j<j<j<<jj<jjjjjXXX&&&###&&&&&#&&&&&",
"&&&&&&&&##&##&&&&&XXXXjjjjjj<jj<<jjjj<<jjjXXX#&&###&&&####&&&&&&",
"&&#####&&&&&&&&&&#&&=XXXXjjjjjjjjjjjjjjhfXX&&&&&&&&&##&&&&&&&&&&",
"&&&&&&&&&#########&&&&&=XXXXXXXXXXXXXXXXX###&&&&&&&&&##&&&&&&&&&",
"&&&&&&&&##&&&&&&&&&&#######&&#&&&&#&&&########o#&&&&&&#&&&&&&&&&",
"&&&#####&&&&&&&&&&&&#&&&&&&&&&&&&&&&&&&&&&&&&##&&&&&&&###&&&&&&&",
"&&&&&&&&&&&&&&&&&&&&&&&&&&&&&&&&&&&&&&&&&&&&&&&&&&&&&&&&###&&&&&"
};
