/* XPM */
static char *_84b89e6daf84ff59b18a51d9a41be13HCGfsst2AeyFdMls[] = {
/* columns rows colors chars-per-pixel */
"128 128 15 1 ",
"  c None",
". c black",
"X c #07040A",
"o c #120C19",
"O c #1B181E",
"+ c #281B37",
"@ c #27183A",
"# c #2A1A3E",
"$ c #2B1A40",
"% c #2F1C45",
"& c #35204E",
"* c #473062",
"= c #8F61C6",
"- c #D7C0F3",
"; c white",
/* pixels */
"                                                                                                                                ",
"                                                                                                                                ",
"                                                                                                                                ",
"                                                                                                                                ",
"                                                                                                                                ",
"                                                                                                                                ",
"                                                                                                                                ",
"                                                                                                                                ",
"                                                                                                                                ",
"                                                                                                                                ",
"                                                                                                                                ",
"                                                                                                                                ",
"                                                                                                                                ",
"                                                                                                                                ",
"                                                                                                                                ",
"                                                                                                                                ",
"                                                      .................                                                         ",
"                                                    ...$&&&&&&&&&&&&$$$...                                                      ",
"                                                  ...&&&&&&&&&&&&&&&&&&$$....                                                   ",
"                                                ...&&&&&&&&&&&&&&&&&&&&&&&&$...                                                 ",
"                                               ..$&&&&&&&&&&&&&&&&&&&&&&&&&&&$...                                               ",
"                                              ..&&&&&&&&&&&&&&&&&&&&&&&&&&&&&&$$..                                              ",
"                                  ......     $..&&&&&&&&&&&&&&&&&&&&&&&&&&&&&&&&&&...............                               ",
"                                ...    ...   ..&&&&&&&&&&&&&&&&&&&&&&&&&&&&&&&&&&&&&&&&&&@&&&@..                                ",
"                               ..        .....&&&&&&&&&&&&&&&&&&&&&&&&&&&&&&&&&&&&&&&&&&&&&@@@                                  ",
"                               .          ...&&&&&&&&&&&&&&&&&&&&&&&&&&&&&&&&&&&&&&&&&&&&&@@                                    ",
"                                           $$&&&&&&&&&&&&&&&&&&&&&&&&&&&&&&&&&&&&&&&&&&&&@.                                     ",
"                                         ..$&&&&&&&&&&&&&&&&&&&&&&&&&&&&&&&&&&&&&&&&&&&&&@..                                    ",
"                                        ..&&&&&&&&&&&&&&&&&&&&&&&&&&&&&&&&&&&&&&&&&&&&&&&&@..                                   ",
"                                       ..&&&&&&&&&&&&&&&&&&&&&&&&&&&&&&&&&&&&&&&&&&&&&&&&&&&..                                  ",
"                                       .&&&&&&&&&&&&&&&&&&&&&&&&&&&&&&&&&&&&&&&&&&&&&&&&&&&&&..                                 ",
"                                       .&&&&&&&&&&&&&&&.&&&&&&&&&&&&&&&&&&&&&&&&&&&&&&&&&&&&&&.                                 ",
"                                       .&&&&&&&&&&&&&&@.&&&&&&&&&&&&&&&&&&&&&&&&&&&&&&&&&&&&&&..                                ",
"                                      $.&&&&&&&&&&&&&&.&&&&&&&&&&&&&&&&&&&&&&&&&&&&&&&&&&&&&&&&.                                ",
"                                      ..&&&&&&&&&&&&&.@&&&&&.&&&&&&&&&&&&&&&&&&&&&&&&&&&&&&&&&&.                                ",
"                                      .&&&&&&&&&&&&&&.&&&&&&.&&&&@.&&&&&&&&&&&&&&&&&&&&&&&&&&&&.                                ",
"                                     ..&&&&&&&&&&&&&&.&&&&&.&&&&&@.&&&&&&&&&&&&&&&&&&&&&&&&&&&&.                                ",
"                                     .$&&&&&&&&&&&&&&.&&&&&.$@.&&.@&&.@&&&&&&&@&&&&&&&&&&&&&&&&.                                ",
"                                     .&&&&&&&&&&&&&&&.&&&&&.$..&@.@&&..&&&&&&&..&&&&&@&&&&&&&&&.                                ",
"                                     .&&&&&&&&&&&&&&&.&&&&&.$.&&....&&.&&&&&&&...&&&&@&&&&&&&&&.                                ",
"                                     .&&&&&&&&&&&&&&&.&&&&....&@.;..&&.&&&&&&&.;..&&&.&&&&&&&&&.                                ",
"                                     .&&&&&&&&&&&&&&&.&&&&....&..;;.&..&&&&&.&.;;...&.&&&&&&&&&.                                ",
"                                     .&&&&&&&&&&&&&&&.&&&&..;...;;;.&..&&&&&.&.;......&&&&&&&&&.                                ",
"                                     .&&&&&&&&&&&&&&&.&&&&.;;....;;.&..&&&&&.@...;;;..&&&&&&&&&.                                ",
"                                     .&&&&&&&&&&&&&&&.&&&&.;;..;....&..&&&&&.@.;;.....&&&&&...&.                                ",
"                                     .&&&&&&&&&&&&&&&.&&&&.....;;;.....&&&&&..........&&&&&. ...                                ",
"                                     .$&&&&&&&&&&&&&&.&&&&........;..;.&&&&..XXXX..;;.&&&&&. ..                                 ",
"                                     .$&&&&&&&&&&&&&&.&&&&.;;XXXXX..;;.&.....X&&&&..;@&&&&@. .                                  ",
"                                     ..&&&&&&&&&&&&&&.&&&&.;XX&&&XXX.;....;.XX&&&&&.;@&&&..  .                                  ",
"                                      .&&&&&&&&&&&&&&.&&&&.;X&&&&&&X;...;;;;X&&&&&&.;@&&&.                                      ",
"                                      .$&&&&&&&&&&&&&.&&&&.;X&&&&&&X;;;;;;;;X&&&&&..;@&&.                                       ",
"                                      .$&&&&&&&&&&&&&.&&&&.;X&&&&&&X;;;;;;;;XX&&&&.;;.&&.                                       ",
"                                      .&&&&&&&&&&&&&&.&&&&.;XX&&&&XX;;;;;;;;;X&&...;.....                                       ",
"                                      .&&&&&&&&&&&&&&.&&&&.;;XX&&XX;;;;;;;;;;;....;;;;..                                        ",
"                                      .&&&&&&&&&&&&&&.&&&&.;;;XXXX;;;;;;;;.;;;;;;;;;;;;.                                        ",
"                                      .&&&&&&&&&&&&&&.&&&&.;;;;;;;;;;;;;;;;;;;;;;;.;;;;..                                       ",
"                                      .&&&&&&&&&&&&&&.&&&&.;;;;;;;;;;;;;;;;;;;;;;;;;;;;;.                                       ",
"                                      .&&&&&&&&&&&&&&.&&&&.;;;;;;;;;;;;;;;;;;;;;;;;;;;;;.                                       ",
"                                     ..&&&&&&&&&&&&&&.&&&&.;;;;;;;;OOO;;;OOOOO..;;;;;;;.                                        ",
"                                     .$&&&&&&&&&&&&&&.&&&&.;;;;;;;;O--O;OO----..;;;;;;;.                                        ",
"                                    ..@@&&&&&&&&&&&&&.&&&&.;;;;;;;;O--OOO-----.;;;;;;;.                                         ",
"                                   .....#&&&&&&&&&&&&..&&&.;;;;;;;;OO--O-----O.;;;;;;;.                                         ",
"                                       ..&&&&&&&&&&&&%.&&&.;;;;;;;;;OO------O;;;;;;;;..                                         ",
"                                        ..&&&&&&&&&&&&.&&&.;;;;;;;;;;OOO---OO;;;;;;...                                          ",
"                                         .X&&&&&&&$&&&.&&&.;;;;;;;;;;;;OOOOO;;;;;...                                            ",
"                                          ..&&&...$$&&.&&&.ooo+ooo;;;;;;;;;;;;;ooo                                              ",
"                                           .....X o....&...=======ooo;;;;;....oo=o                                              ",
"                                                ooo===..=..==========o.....=======.                                             ",
"                                               oo=====..=..==========ooo======...=+oo                                           ",
"                                              oo==============+ooo=====oo===o..======o                                          ",
"                                            ..o=====o============oooo=======..+oo+===oo                                         ",
"                                           .=========oooo===========oo===.============ooo                                       ",
"                                          ..=============o...ooooo=======.==============oo                                      ",
"                                         oo========================.=====o===============oo                                     ",
"                                         o=========================.=====o================oo                                    ",
"                                         o===o...==================.=====o==========ooo====o                                    ",
"                                         o=====...=================.=====o================oo                                    ",
"                                        .o======..=================.=====o=======.========o                                     ",
"                                        .o=======..================.=====o=======.=====oooo                                     ",
"                                        .ooo=o===========================o=======.===ooo;..                                     ",
"                                       ..;.oooo==.=======================o=======o+=oo;;;;..                                    ",
"                                       .;;;;;.....=======================o========+oo;;;;;;..                                   ",
"                                      .;;;;;;;;..=================================o;;;;;;;;;.                                   ",
"                                      .;;;;;;;;..=================================o;;;;;;;;;.                                   ",
"                                      .;;;;;;;;.==================================+o;;;;;;;;.                                   ",
"                                      ..;;;;;;;.===================================o;;;;;;;;.                                   ",
"                                       .;;;;;;..===================================o;;;;;;;.                                    ",
"                                       ..;;;;;.====================================o;;;;;;..                                    ",
"                                        ...;;;.============................*======oo..;;;..                                     ",
"                                          .....====...........................o===o  .....                                      ",
"                                              .................................oooo                                             ",
"                                              ......................................                                            ",
"                                              .......................................                                           ",
"                                              ........................................                                          ",
"                                              .........................................                                         ",
"                                              .........................................                                         ",
"                                              ..........................................                                        ",
"                                              ..........................................                                        ",
"                                             ....................... ....................                                       ",
"                                             ......................  ....................                                       ",
"                                             .....................   ....................                                       ",
"                                             ....................      ..................                                       ",
"                                             ....................      ..................                                       ",
"                                             ...................         ...............                                        ",
"                                              ................                                                                  ",
"                                                                                                                                ",
"                                                                                                                                ",
"                                                                                                                                ",
"                                                                                                                                ",
"                                                                                                                                ",
"                                                                                                                                ",
"                                                                                                                                ",
"                                                                                                                                ",
"                                                                                                                                ",
"                                                                                                                                ",
"                                                                                                                                ",
"                                                                                                                                ",
"                                                                                                                                ",
"                                                                                                                                ",
"                                                                                                                                ",
"                                                                                                                                ",
"                                                                                                                                ",
"                                                                                                                                ",
"                                                                                                                                ",
"                                                                                                                                ",
"                                                                                                                                ",
"                                                                                                                                ",
"                                                                                                                                "
};
