/* XPM */
static char *_cb6a9322eb9495f8f9b0031c4baea52[] = {
/* columns rows colors chars-per-pixel */
"64 64 6 1 ",
"  c #5B5C5B",
". c #5F615F",
"X c #636462",
"o c #696B69",
"O c #747774",
"+ c #868A86",
/* pixels */
"++++++++++++++++++++++++++++++++++++++++++++++++++++++++++++++++",
"++++++++++++OOOOOOO+++OO++++++++++++++++++++++OOO+++++++++++++++",
"      +OO+OOoOOO+    +++OOooooO++++++++++++OOOO+++O++++OO++OO+++",
"+++++     oO++++OOO+OOO  OO++OooOOO  +++OOOO++++++OO++OOOO O++++",
"++OOO++OOOOO+++++++OOO+  ++++    ++Oooooo   ++++  +OO++OO+++++++",
"OooO+         ++   ++OOOO++++++OOOOOOOO++++OOOoOO   O   OO++++O+",
"+++oO+++ooO+OOOOOOO+OOO +OOOOOOOOOOOooOOOOOooooO++OoOoOO+OO+++O+",
"+++OO++++OOO+OOOOOOoo   OoO+OOOOOO++  +++++++++++++OOOOOoooO  o+",
"+++O+++++OoOOOooX+++++OooXoXXOO  +++++++    ++++OO++OO  +OOO+oo+",
"++++O+++   +++O+   oOOooO oooo  OO+++OO  +O++++  O+    O+++OoX++",
"+++ O    +O++++O++++OOO+OOOO++O+++++++OOoOoO+ ++OoOOO+ooO+++Oo++",
"O++   O++O++++++O++OXoOOO+++++++++++++O   OOO OO+OO+OOoOo++OoO++",
"O+++o+O++O+  +++     O    ++++++++++    ++O++OO++OO+++oOo+     +",
"O++Oo+O++O+ +++++oooOOO++++OOOOOOOO  oOOOOO+++++ O++  oo.OOOo+++",
"+++OO+O+OO+++++OOoXO+O+oOOOO++    ++OO++OoOOOOO  ++OOOoOX++oO+++",
"+++     O+++ ++OO  ++    OO+++++++++OOO++O++++Oo+++++OoOoO+o+O++",
"+++OO++O++++OO+oOo.oOO++OOoOO+ +++   OOOO  ++++O++++++O+oOOo+O++",
"+++ooOOoO++++OOo+OOO+OOOOO+OOooOOO+++O+Oo+OO+++O    +      O+O++",
"+++oO+++OOOOOO+oOOO+O+++XO++++OOOO+++O++oOOooOOO+++++OO+X+O++O++",
"+OOO++++++   +OoO++OOO++O++++++     +O+++OOOOO+OO++++O+ooOO++O++",
"OO+  ++O++ + +oOO+    oOX+++++++O+++OO+++O+OOO   ++++O+ooO++OO++",
"O+OO  OOooO+++oOoO++++O      ++++O +O++    +OoO++++++OOoo+++O+++",
"OOOOOO+++++OOO+oo+++++++XO++++OOOO Oo+  +OO++OOO++++        O+++",
"+OoOO  ++++++  oOOO++O++OO+++OO++OOOoOOOO+O   oo++    oo++++O+++",
"++oo  ++++++  +O+O  oX++++   oo+   +++   ooOO++OOO++O+o++O++OOO+",
"+++X ++++++++++O+  ++XooXXXoO++OOOOOOOOOO+OOO++++OoooOXO+o+++Oo+",
"+++OO+++++  +++O+++++O+OO+++++++++++++++OOoXOOOOOOO+OoO+Ooo+++o+",
"+++OOO+++  ++++O+++++OO+++++++++   ++++++++O++   +++O++++   OOo+",
"+++OOO+++++++++OO++OO+    ++O    ++++++++++OO+++++++++      +OO+",
"+++ OOO+++++++++OOOO++++++++  +OoooOO+    ++O+++++++++++O++O+O++",
"++OOO+OoOOO++++++  +++++OOO++++++++OooO++++  O+     +++++O++O+++",
"++O+O++o++OOO  +++++OOOO+++O++++++     oo   +O+ OO+++O+++O++O+++",
"++o+O+        O+++OOO++OOO  O+++++++++++OoOOOooOO++++O+++OO++O++",
"+Oo++++O+++++++OooOOOOOOOooO+OOOOOOO+++++OO+++O++++++O++++O++O++",
"+O+O+++OO++++++OOO   O+++      +++++OOO  +O+++     ++O +++OO+O+O",
"+O+   ++O++   ++++ +OoOO++++++OOO+++++++ooXoo++Oo+++   ++O+OOOOO",
"+++++ O  +++++++++++OO+OOO++++++OOO+ OOOO+O+++++O    OO+OOO OOoO",
"+++++O  OOO+++++++OOO+++++++++OOO+OOOO+++OO+++++  O+O+O++O  OoX+",
"+++++O++++OOOOO+++++O       +++O   o++++OO  ++++++++O+OO    oOO+",
"+O++ O+++  +++O   oo  +++++++OOO+OoO+OOO+++++++++++++O+O+++OO+O+",
"+O+++O++  O++++++++OOOOOOOOOooOOOOo++++O OOOO++++++++O++O++oO+O+",
"+O++OO+OO+O  ++++++      +++    ++OO   +    OOO++++++OO+OOOo++O+",
"+  +O++O++OO+O++++++++O+++++O++++++O+++++++   OO++++      o+O+O+",
"+O++O+OO++OOO++++++++++O++++o++++++O+++OO++++++      +OOOO+OO+O+",
"+O+OO    +ooO++++++OOOO+O+++oO+++++O++OO+++++ + O++O++++ ++Oo+++",
"+OOO+ OOOO      +   ++OO   +O+O++++O++++++++++++O+++O+++++++oO++",
"++OO+ ooOO OO++++++++++OOOOOOO+     +O++++ ++++++++++   ++++Oo++",
"++OOOO+OO+O++OOOO +++++++OO+OO++OOO++OOOOO     ++++++OO++++++o++",
"+++    +OOOOO+++OOO++++++++OOoO+++O+++++++++OO    +++OO++++++O++",
"++OO++++++++OOO+++OO++++++    OOO++OoOOOOOO+++OOO++++O++++++OO++",
"++Oo+++++++++   +++++   +++OOoXo oOOOOO+++O  O+++OOO+OO++++oOOO+",
"+++Xo++  ++++++++++   +++OOO+++o   OO++  +++   O+++OOOOo++O  +O+",
"+++o    ++++++++++++++++++++++++o++++O  +OOO+OO+++     XoO+ +O++",
"+O+OOO+++++++++++++++++++++++  +OOO++++OOOOOooO++++++++XoO+oOO++",
"+O+OOoO+++    ++++++++++OO++OO  ++OOOOOOOOOOO+OOOOOO+OOX+OXX++++",
"+O+OO+OOO+++++O         ++  O++  +++++++++++OOoO    XXoXOoOOOOO+",
"+O++OOOOoooO+   OOoOOOOOOOO+++++++++++++++++++oooOO+++oooOOO++OO",
"+OO   ++++Oo  O++++OOOOOXXo++++OOOOOOOOOOO       ++++O   +O++++O",
"+++++++++++O++++++OOOOOOOOoXXXooOOOO  ++++++++ooO+++OOO+O+O ++++",
"+++++++++++O++++  +   +++++++OOoooOOOo  OOOooooooOoooOO+O++  +++",
"+++      +++     ++++    OO ++  +OOOOooooXXX      O+++++O+++  ++",
"+++++++++++++++++++++++++++    OOOOOOOOOOO+  OOOOO++++++O+++++  ",
"+++++++++++++++++++++++++++++++++++++++++++++++++OOOO+++O+++++++",
"++++++++++++++++++++++++++++++++++++++++++++++++++++OOO+++++++++"
};
