/* XPM */
static char * wall_xpm[] = {
"128 128 2 1",
" 	c #4E4A4A",
".	c #595656",
"                                                                                                                                ",
"                                                                                                                                ",
"                    ...                                                                                                         ",
"   ...              ...        ...                                   ...               ...                                      ",
"   ...              ...        ...                                   ....              ...                                      ",
"   .....            ....       ...                                   ....              ....                                     ",
"   .....            ....       ...                                   .....             ....                                     ",
"   .....            ....       ...                        .....       ......           ....                                     ",
"                     ...       ....                     .......       ......                                    ...             ",
"                     ...       ......            ...   ........        .....                                    ...             ",
"                     ...       .......           .... .......                                                   ...             ",
"              ...    ...          ....           ..........                                  ...                ...             ",
"              ...    ...          ......         .........                            ....   ...                ...             ",
"              ...                  .........      ......                              ....   ...                ...             ",
"              ...                  .........      ......            ..... ...         ....   ....               ...  ...        ",
"              ...                    ........     .....             ..... ...          ...   .....              ...  ...        ",
"              ...         ....           ....     ....  ...         ..... ...          ....  .....              ...  ....       ",
"              ...         ....           ....     ...   ...         ...   ...   ...    ....   ....              ...  ....       ",
"              ...         ....            ...     ...   ...               ...   ...    ....    .......               ....       ",
"     ...      ...          ...            ...     ...   ....             ....  ....     ...       ....                ...       ",
"     ....     ...          ...            ...     ...   ....            .....  ....     ...       .....               ...       ",
"     ....     ...         ....            ...           .....           .....  ....     ...        ....   ...         ...       ",
"     ....     ...         ....            ...            ....           ....   ...      ...        ....   ...   ...   ...       ",
"     ...      ...         ....            ...            .....                 ...      ...         ...   ...   ...   ...       ",
"     ...      ...         ...                             ....                ....      ...         ...         ...   ...       ",
"              ...         ...                             ....                ....      ...         ...         ....  ...       ",
"              ...         ...                              ...                ....     ....         ...         ....  ...       ",
"              ...         ...                         ...  ...               ....      ...          ...         ....  ...       ",
"              ...         ...                       .....  ...             ......      ...          ...          ...  ...       ",
"             ....         ...         ...          ......  ... ...        .......      ...                            ...       ",
"             ....         ...         ...          ......  ... ...        ....         ...   ...                      ...       ",
"            ....                      ...          ....    ... ....       ....         ...   ...                      ...       ",
"            ....           ...        ...             .... ... .... ...  ....         ....   ...                      ...       ",
"           .....           ...        ...             ....     .... ...  ....         ....  ....               ...    ...       ",
"           ....            ...        ...             ....      .......  ....         ...   ....               ....             ",
"           ....            ...       ....         .... ....     .......  ...          ...  .....               ....             ",
"          ....             ...       ....         .... ....     .......  ...          ...  ....         ....   ....             ",
"          ....            ....       ....         .... ....      .....   ...          ...  ....         ....    ....            ",
"          ....            ....       ...                ....     .....   ...               ...          ....    ....            ",
"          ...            ....        ...                ....     .....   ...                             ...    ....            ",
"             ...         ....        ...       ...      ....     .....   ...                             ...     ...            ",
"             ...         ....        ...       ....      ....    ....    ...                             ...     ...            ",
"            ....                     ...       ....      ....    ....    ...                            ....     ...            ",
"            ....          ...        ......    ....      ....    ....    ...                            ....     ...            ",
"            ....          ...        ......     ...       ...    ...     ...     ......                 ....     ...  ...       ",
"            ...           ...           ...     ...       ....  ....     ...     ................       ...      ...  ...       ",
"           ....           ...           ...     ...       ....  ....     ...     ................       ...      ...  ...       ",
"           ....          ....           ...     ...       ....  ....     ...        .............       ...           ...       ",
"      ...  ....          ....           ....    ...        ...  ...      ...            ....            ...           ...       ",
"      ...  ...           ....           ....    ...        ...  ...      ....           ....            ...           ...       ",
"      ...  ...           ...            ....    ...            ....      ....           ....            ...           ...       ",
"      ...  ...           ...   ...      ....... ...            ....      .....          ....            ...           ...       ",
"      ...  ...           ...   ...      ....... ...            ...     .......       .......                          ...       ",
"      ...  ...           ...  ....      ....... ...                   ........   ...........           ....           ...       ",
"      ...      ...       ... .....      ....... ....                  .... ...   ..........       ...  ....           ...       ",
"      ...      ....      ... .....         ...  .... ...             .....       ..........       ... .....                     ",
"      ...      ....      ... ....               .... ...           ......        ...   ....       ........                      ",
"      ...      ....      ...                     ... ...           .........     ...  ....        ........                      ",
"      ......    ...                              ... ...           .........     ...  ....        .......                       ",
"      ......    ...                ...           ... ....             ......     ...  ....         .....                        ",
"         ...   ....                ....          ... ....          ...           ...  ...                                       ",
"         ...   ....                ....          ... ....          ....          ...  ...                             ...       ",
"         ...   ....                ....          ...  ...          .....         ...                            ...   ...       ",
"         ...         ...            ...                            .......       ...                            ...  ....       ",
"         ....        ....           ....                             ......      ...                            ... .....       ",
"         ....        .....          .....   ...                       .......    ...                            ... .....       ",
"         ....        .....          .....   ...                        .......   ...           ......          .... ....        ",
"                      ....           ....   ...              ...        .......                ......          .... ...         ",
"                       ...                  ....             ...          ......               ......          ....             ",
"           ......      ....                 ....            ....           .....               ...             ...              ",
"          .......      ....                 .....           ....            ....           ...                                  ",
"         ........      ....        ...       ....          ....     ...      ...           ...              ....                ",
"        ......          ...        ...       ....         .....    ....     ....           ...              ....                ",
"        .....           ...        ...        ... ....   .....     ....     ........       ...             .....                ",
"        ....            ...        ...        ... ....   .....     ....     ........       ...            .....        ...      ",
"        ...             ...        ...        ... ....   ....      ...     .........       ...            .....        ...      ",
"                        ...        ...       .... ...    ...       ...     ........        ...           .....         ...      ",
"                        ...        ...       ....        ...       ...    .....            ...           ....          ...      ",
"                        ...        ...       ....                  ...    ....             ...          .....          ...      ",
"                        ...        ...       ...                   ....   ....             ...          ....           ...      ",
"           ...          ...        ...                             ....  ....              ...          ....           ...      ",
"           ...          ...        ...                 ...         ....  ....              ....         ...            ....     ",
"           ...          ...        ...                 ...         ....  ....              ....         ...            ....     ",
"           ...          ...        ...                 ....       .....                    ....         ...             ...     ",
"      .... ...          .......                ...     ....       ....                      ...         ...             ...     ",
"    ...... ...             ....                ....     ...       ....                      ...         ....            ....    ",
"    ...... ...            .....                ....     ...      .....               ...    ...         ....            ....    ",
"    .....  ...            ....                 ....     ....     .......            ....                .....           ....    ",
"    ....   ...            ....                  ...     ....     ........           ....                 ....            ...    ",
"    ....   ...            ...                   ...     ....    .........          .....    ...          .....           ...    ",
"           ...      .... ....             ...   ...      ....   ..........         ....     ...           ....           ...    ",
"           ...    ...... ....             ...   ...      ....  ...........        .....     ...          .....           ...    ",
"           ...   ....... ....             ...   ...      ....  .... .......       ....      ...         .....            ...    ",
"           ...   ......  ...         ...        ...       ...  .... .......       ....      ...        ......            ...    ",
"           ...   ....   ....  ...    ...        ...       .... ...   .......      ...       ...        .....            ....    ",
"           ...          .... ....    ...        ...       ....       .......               ....        ....             ....    ",
"           ...          .........   ....        ...       ....          ....               ....       ....              ....    ",
"           ...         ...  .....   ....        ...        ....          .... ...          ....       ....              ...     ",
"           ...        ....  ....    ...         ...        ....          .... ...          ...        ....              ...     ",
"           ...        ....  ...     ...         ...        ....          .... ...          ...        ...               ...     ",
"           ...        ....          ...         ...         ...           ... ...          ...                  ...             ",
"           ...        ...          ....         ...         ...           ... ...          ...                  ...             ",
"           ...        ...          ....         ...         ...           ... ...         ....                  ...             ",
"           ...        ...          ....                    ....                           ....                  ...             ",
"           ...        ...          ...                     ....                          .....                  ...             ",
"           ...        ...          ......                  ....                          ....          ....     ...             ",
"           ...        ...          .......                 ...                           .....         ....     ...             ",
"    ...               ...          .......                  ...                          .....         ....     ...    ...      ",
"   ....               ...          ... ...                  ....                          .....        ...      ....   ...      ",
"   ....               ...              ...                  ....                          .....                 ....  ....      ",
"   ....               ....             ...      ...         ....                          .....                 ....  ....      ",
"   ...              ......             ....     ...        .....                         .......                 ... .....      ",
"   ...              ......             ....     ...        .....                         .......                 ... ....       ",
"   ...              ......             ....     ...        ......         ....           .......                     ....       ",
"   ...              ......              ...     ...        .........      ....               ....                    ...        ",
"   ...              ....         ....   ...     ...       ..........     .....    ...        ....                    ...        ",
"   ...               ...        .....   ...     ...      ...........     ....     ...        ....                               ",
"   ...               ...       ......           ...      .....           ....     ...         ...                               ",
"   ...               ...      ......            ...     .....                    ....         ...                               ",
"   ...               ....     .....             ...    .....                     ....         ...                 ...           ",
"   ...               ....     ....              ...    .....                     ....                             ...           ",
"                     ....     ...               ...   .....                      ...                              ...           ",
"                      ...                       ...   ....                                                        ...           ",
"                      ...                             ....                                                       ....           ",
"                                                                                                                 ....           ",
"                                                                                                                 ....           ",
"                                                                                                                 ...            ",
"                                                                                                                 ...            "};
