/* XPM */
static char *_239354267f64b638c50c39de3155a7cWX0DqtSy1dy6zPx0[] = {
/* columns rows colors chars-per-pixel */
"16 16 2 1 ",
"  c #064A1E",
". c #0F8D3B",
/* pixels */
"  .   .         ",
"  ..  ...   ..  ",
"   ..   ..   .. ",
".   ..        ..",
" ..    . ..  .  ",
"  . ..    ..    ",
"     ..     ..  ",
" ..      .   .  ",
"  ...  . ..     ",
"    .. .. ... . ",
"  .  .. ... .   ",
"  .       ..    ",
"   ..        .. ",
" .  . .. ..   . ",
" .  .  .  ..    ",
"                "
};
