/* XPM */
static char *b172609a3e7f45d2fd5a2a2f609dabe45naUB6WovhdAvq3H[] = {
/* columns rows colors chars-per-pixel */
"16 16 2 1 ",
"  c #824005",
". c #9B4C05",
/* pixels */
"..              ",
"         ..     ",
"    ..    .. .  ",
"  .  ..    .    ",
"  ..  ..  .     ",
" . ..  .  . .   ",
"    .    .   .  ",
"     ..  ..  .  ",
"   .  ..  ..    ",
"  ...   ..      ",
"  . ..   . .    ",
"  .. ..    ..   ",
"   ......   ..  ",
"     .. ..   .. ",
"      .  .    . ",
"                "
};
