/* XPM */
static char *_8e4d04d800649faa507958f082dbb3e[] = {
/* columns rows colors chars-per-pixel */
"64 64 14 1 ",
"  c black",
". c #0C0C0C",
"X c #051E03",
"o c #092A06",
"O c #092F07",
"+ c #093B0B",
"@ c #0F3A0B",
"# c #0E390D",
"$ c #093F0C",
"% c #0F3D0C",
"& c #0E440E",
"* c #7F1082",
"= c #E612CD",
"- c white",
/* pixels */
"@@@@@@@@@@@@@@@@@@@@@@@@@@@@@@@@@@@@@@@@@@@@@@@@@@@@@@@@@@@@@@@@",
"@@@@@@@@@@@@@@@@@@@@@@@@@@@@@@@@@@@@@@@@@@@@@@@@@@@@@@@@@@@@@@@@",
"@@@@@@@@@@@@@@@@@@@@@@oo@@@ooo@@@@@@@@@@@@@@@@@@@@@@@@@@@@@@@@@@",
"@ooooo$@@@@@@ooooo@@@ooXXXoo@@.................o@@@@oo@@@@@@@@@@",
"@@@@@@@@oXooooooooooo@@@@......***************.......oo@@#@@@@@@",
"@@@@@@@oo.................**************************. .@o@o@@@@@",
"@@@@@XX...********************************************.@oooo@@@@",
"@@@ooX..*****************************.....************..@@@@@@@@",
"@@@@oo.********........************......**************.oo@@o@@@",
"@@@@oo.*******...........*********.......**************.@@@@@@@@",
"@@@oo@.***********........******.......***....********..@@@@@@@@",
"@@@o@@.*........*******...*****.......**...--..*******.oo@@o@@@@",
"@@@ooo.*.------....******..**......***...-----.*******.oo@@o@@@@",
"@@@oO@...-----.......********.******...-------.*******.o@@@@@@@@",
"@@oo@...-----..=.......************..==.....--.*******.@@@o@@@@@",
"@@o@@...----..=====........******...=======..-.*******.@@@oo@@@@",
"@@o@@....--..========...-...****....========.-.*******.ooo@oo@@@",
"@@o@o.**..-.==========..--..***..--..======....*******.@@@@@o@@@",
"@@@@@.***....=========.---.****.----..=====...********.@@@@o@@@@",
"@@@Xo.****.....======..---.****.-----..====...********..@@@o@@@@",
"@@@o@.******..........--...****.------.......**********.@@@o@@@@",
"@@@Xo.********.............****.--------....***********.@o@o@@@@",
"@@@@@.*************....***..***..------...*************.@@@o@@@@",
"@o@@#.************************.........****************.oo@o@@@@",
"@o@o@.*************************************************..&@@@@@@",
"@@@@@.*************************.************************.#ooo@@@",
"@@@@@.**********************.**.************************.o@@o@@@",
"@@@@@.**********************..*.************************.+@@o@@@",
"@@@@o.*****..****************.*.************************.#@@o@@@",
"@@@@@.*****......************.*..***********************.@@oo@@@",
"@@Xoo.*****.----...*********..*..**********.************.#oX@@@@",
"@@o@@.*****...--.-....********************..************.Ooo@@@@",
"@@o@@.*****..-.-.----.....***************....************.@@@@@@",
"@@o@o.*****...-..--.-----.....*********...--..***********.@@@@@@",
"@@ooX.*****...-.-...--.---.---..........-----..**********.@@@@@@",
"@@@@@.*****.-.-.------..-..---------.--.------..*********.@o@@@@",
"@@o@@.*****.-.-.--.----.-.---.------.--.---.---..********.@@@@@@",
"@@@@o.*****...-.--.--..--.--..----.-.--.--..-.--.********.@@@@@@",
"@@@@@.*****..-..-..-----..--.--..--.--..-.---.--.********.@@o@@@",
"@@@@..*****.--.--.--..--.---.-.--.-..-.--.--.--...*******.@@o@@@",
"@@o@.******..-.-..--.-.-.-----.--.--.-.-----.-..-.*******.@@@@@@",
"@@@o.*******.-.-----.-.-.-..--.-------.--..-.-.--.*******.@@@@@@",
"@@@@.*******...----..--..-.--.---.-..-.---.---.--.*******.@@@@@@",
"@@oo.*********..----.--.-----.-...-.--.-----.----.*******.o@@@@@",
"@@@@.**********...-----.-----.----..--.--.------..*******.ooo@@@",
"@@@o.************....--.--------------.--------..********.o@@@@@",
"@@oo..**************.....------------..----.....*********.X@@@@@",
"@@@@@.******************............-.......*************.@@@@@@",
"@@@@@.*****************************....******************.@@@@@@",
"@@o@@..*************************************************.@oo@@@@",
"@@o@oo...**********************************************..o&@@@@@",
"@@oooooo...*****************************************....@oo@@@@@",
"@@o@@@@@@@.....*********************************.....#@oooo@@@@@",
"@@@@@@@@@@@@@@&..............**************......@@@@ooo@@@@@@@@",
"@@o@@@@@@@@ooooX@@@@@@@oo@@%................@@@@@@@oo@@oo@@@@@@@",
"@@oo@@@@oo@@@@@ooo@@@@@@ooXoooo#@@oo@@@@o@@o@@@@@@ooo@@@ooX@@@@@",
"@@@@@@@@@@@@@@@@@@@oooooo@@oo@@@oooo@@@@@@@oooo@@@o@@@@@@@o@@@@@",
"@@@@@ooXo@@@o@ooooooo@@@@@@@@@@@o@@@@@@@@@@@@@@@@@ooo@@@@@o@@@@@",
"@@@@@@@@oo@oo@@@@@@@@@@@@@oo@@oo@@@@@@@@@ooooo@@ooo@@@oooo@@@@@@",
"@@ooooo@@@@@@@@@@o@@@@oooooo@oo@ooXo@@@@oo@@@@@@@@@@oo@@@@@@@@@@",
"@@@@@@@@@ooooooooo@@@@@@@@@@@o@@@@o@@@@@oooo@@@@@@@@@oo@@@@@@@@@",
"@@@@@@@@oo@@@@@@@@@@ooooooo@@o@@@@o@@@ooooooooXo@@@@@@o@@@@@@@@@",
"@@@ooooo@@@@@@@@@@@@o@@@@@@@@@@@@@@@@@@@@@@@@oo@@@@@@@ooo@@@@@@@",
"@@@@@@@@@@@@@@@@@@@@@@@@@@@@@@@@@@@@@@@@@@@@@@@@@@@@@@@@ooo@@@@@"
};
